<mxfile host="65bd71144e">
    <diagram name="Page-1" id="j4b56-QAGKokICRZK4UX">
        <mxGraphModel dx="3014" dy="565" grid="1" gridSize="10" guides="1" tooltips="1" connect="1" arrows="1" fold="1" page="1" pageScale="1" pageWidth="850" pageHeight="1100" math="0" shadow="0">
            <root>
                <mxCell id="0"/>
                <mxCell id="1" parent="0"/>
                <mxCell id="yvF3iTE31LWRvtUjP0S4-23" value="" style="group" parent="1" vertex="1" connectable="0">
                    <mxGeometry x="623" y="120" width="170" height="180" as="geometry"/>
                </mxCell>
                <mxCell id="yvF3iTE31LWRvtUjP0S4-24" value="" style="rounded=1;arcSize=10;dashed=0;fillColor=#ffe6cc;strokeWidth=2;strokeColor=#d79b00;" parent="yvF3iTE31LWRvtUjP0S4-23" vertex="1">
                    <mxGeometry x="10" y="20" width="160" height="160" as="geometry"/>
                </mxCell>
                <mxCell id="yvF3iTE31LWRvtUjP0S4-25" value="" style="dashed=0;html=1;shape=mxgraph.aws3.elastic_beanstalk;fillColor=#F58536;gradientColor=none;dashed=0;" parent="yvF3iTE31LWRvtUjP0S4-23" vertex="1">
                    <mxGeometry width="30" height="41" as="geometry"/>
                </mxCell>
                <mxCell id="yvF3iTE31LWRvtUjP0S4-26" value="" style="points=[[0,0],[0.25,0],[0.5,0],[0.75,0],[1,0],[1,0.25],[1,0.5],[1,0.75],[1,1],[0.75,1],[0.5,1],[0.25,1],[0,1],[0,0.75],[0,0.5],[0,0.25]];outlineConnect=0;html=1;whiteSpace=wrap;fontSize=12;fontStyle=0;container=1;pointerEvents=0;collapsible=0;recursiveResize=0;shape=mxgraph.aws4.group;grIcon=mxgraph.aws4.group_ec2_instance_contents;strokeColor=#d79b00;fillColor=#ffe6cc;verticalAlign=top;align=left;spacingLeft=30;dashed=0;" parent="1" vertex="1">
                    <mxGeometry x="130" y="650" width="480" height="260" as="geometry"/>
                </mxCell>
                <mxCell id="yvF3iTE31LWRvtUjP0S4-27" value="AWS Hosted by DataDog" style="text;html=1;align=center;verticalAlign=middle;resizable=0;points=[];autosize=1;strokeColor=none;fillColor=none;" parent="yvF3iTE31LWRvtUjP0S4-26" vertex="1">
                    <mxGeometry x="13.82" width="160" height="30" as="geometry"/>
                </mxCell>
                <mxCell id="3tbVtcQ5HgRzrrxqIutd-62" value="" style="rounded=0;whiteSpace=wrap;html=1;fillColor=#d5e8d4;strokeColor=#82b366;" parent="1" vertex="1">
                    <mxGeometry x="190" y="40" width="330" height="590" as="geometry"/>
                </mxCell>
                <mxCell id="3tbVtcQ5HgRzrrxqIutd-5" value="" style="group" parent="1" vertex="1" connectable="0">
                    <mxGeometry x="10" y="168" width="140" height="132" as="geometry"/>
                </mxCell>
                <mxCell id="yvF3iTE31LWRvtUjP0S4-31" value="" style="group" parent="3tbVtcQ5HgRzrrxqIutd-5" vertex="1" connectable="0">
                    <mxGeometry x="-30" y="-48" width="170" height="180" as="geometry"/>
                </mxCell>
                <mxCell id="yvF3iTE31LWRvtUjP0S4-32" value="" style="rounded=1;arcSize=10;dashed=0;fillColor=#ffe6cc;strokeWidth=2;strokeColor=#d79b00;" parent="yvF3iTE31LWRvtUjP0S4-31" vertex="1">
                    <mxGeometry x="10" y="20" width="160" height="160" as="geometry"/>
                </mxCell>
                <mxCell id="yvF3iTE31LWRvtUjP0S4-33" value="" style="dashed=0;html=1;shape=mxgraph.aws3.elastic_beanstalk;fillColor=#F58536;gradientColor=none;dashed=0;" parent="yvF3iTE31LWRvtUjP0S4-31" vertex="1">
                    <mxGeometry width="30" height="41" as="geometry"/>
                </mxCell>
                <mxCell id="3tbVtcQ5HgRzrrxqIutd-3" value="" style="rounded=0;whiteSpace=wrap;html=1;" parent="3tbVtcQ5HgRzrrxqIutd-5" vertex="1">
                    <mxGeometry width="130" height="114" as="geometry"/>
                </mxCell>
                <mxCell id="3tbVtcQ5HgRzrrxqIutd-2" value="" style="shape=image;verticalLabelPosition=bottom;labelBackgroundColor=default;verticalAlign=top;aspect=fixed;imageAspect=0;image=data:image/svg+xml,PHN2ZyB4bWxucz0iaHR0cDovL3d3dy53My5vcmcvMjAwMC9zdmciIHZpZXdCb3g9IjAgMCA3MiA3MiI+PGRlZnM+PHN0eWxlPi5jbHMtMXtmaWxsOiM0NmM3OTU7fS5jbHMtMntmaWxsOiNmZmY7fTwvc3R5bGU+PC9kZWZzPjxnIGRhdGEtbmFtZT0iTGF5ZXIgMiIgaWQ9IkxheWVyXzIiPjxnIGRhdGEtbmFtZT0iTGF5ZXIgNSIgaWQ9IkxheWVyXzUiPjxjaXJjbGUgcj0iMzYiIGN5PSIzNiIgY3g9IjM2IiBjbGFzcz0iY2xzLTEiLz48cGF0aCBkPSJNNDAuOTIsNi4zMmgwbS0uMTMsMCwxLjQ1LDcuNjEuMTYuODUuODIuMjkuMjcuMDlhMTUuMTIsMTUuMTIsMCwwLDEsMS40My41NGMuNDUuMi44OC40NSwxLjM0LjcxbC4yNS4xNC43NS40My43NS0uNDUsNi42Ni0zLjk0TDYwLDE4LjdsLTQuMzIsNS45MS0uNTMuNzIuMzkuODJBMjEuNjUsMjEuNjUsMCwwLDEsNTcsMjkuODJsLjI1Ljg3Ljg4LjIsNy4xMiwxLjU2LDAsOC4xM0w1Ny42Niw0MmwtLjg1LjE2LS4yOC44MSwwLC4xMWMtLjIuNTUtLjM4LDEuMDctLjYxLDEuNTdzLS41LDEtLjc5LDEuNTNMNTUsNDYuM2wtLjQxLjc1LjQzLjc0TDU5LDU0LjQ1bC02LjExLDUuMzZMNDcsNTUuNSw0Ni4yNiw1NWwtLjgxLjM5YTIxLjQ0LDIxLjQ0LDAsMCwxLTMuNjgsMS4zOWwtLjg2LjI1LS4yLjg4TDM5LjE0LDY1bC04LjEzLDAtMS40Ny03LjYyLS4xNi0uODQtLjgxLS4yOS0uMTQsMGMtLjU0LS4xOS0xLjA1LS4zNy0xLjU0LS41OXMtMS0uNDktMS40Ny0uNzdsLS4xMi0uMDctLjc1LS40MS0uNzQuNDQtNi42OSwzLjk0LTUuMzYtNi4xMSw0LjMyLTUuOTIuNTMtLjcyLS4zOS0uODFhMjIuMTIsMjIuMTIsMCwwLDEtMS40LTMuNjhsLS4yNC0uODctLjg4LS4xOUw2LjU3LDM4LjkybDAtOC4xMyw3LjU5LTEuNDYuODQtLjE2LjI5LS44MSwwLS4wOGMuMi0uNTYuMzktMS4xLjYyLTEuNjJzLjUtMSwuNzgtMS40OWwuMDUtLjEuNDItLjc1LS40NC0uNzRMMTIuOCwxNi45Mmw2LjExLTUuMzYsNS45LDQuMzEuNzIuNTMuODEtLjM5QTIyLjA4LDIyLjA4LDAsMCwxLDMwLDE0LjYybC44Ny0uMjUuMTktLjg4LDEuNTgtNy4xNCw4LjEzLDBtLjEzLTEuNWgwbC04LjMzLDBoMGExLjM3LDEuMzcsMCwwLDAtMS4zNCwxLjA2bC0xLjYsNy4yNmEyMy44OSwyMy44OSwwLDAsMC0zLjkzLDEuNDlsLTYtNC4zOGExLjM4LDEuMzgsMCwwLDAtLjgtLjI1LDEuMzksMS4zOSwwLDAsMC0uOTIuMzVsLTYuMjYsNS40OWExLjM5LDEuMzksMCwwLDAtLjI4LDEuNzJsNCw2Ljc1Yy0uMzEuNTYtLjYyLDEuMTEtLjg4LDEuNzFzLS40OSwxLjItLjcsMS44MUw2LjE1LDI5LjM0YTEuMzcsMS4zNywwLDAsMC0xLjEsMS4zNGwwLDguMzNhMS4zOCwxLjM4LDAsMCwwLDEuMDcsMS4zNUwxMy4zOCw0MmEyMy44OSwyMy44OSwwLDAsMCwxLjQ5LDMuOTNsLTQuMzksNmExLjM4LDEuMzgsMCwwLDAsLjEsMS43Mmw1LjQ5LDYuMjZhMS4zOSwxLjM5LDAsMCwwLDEsLjQ2LDEuNDUsMS40NSwwLDAsMCwuNjktLjE4bDYuNzgtNGMuNTYuMzEsMS4xMS42MiwxLjcuODhzMS4xOS40OCwxLjc5LjY5bDEuNSw3Ljc0YTEuMzcsMS4zNywwLDAsMCwxLjM0LDEuMWw4LjMzLDBoMGExLjM4LDEuMzgsMCwwLDAsMS4zNC0xLjA3bDEuNi03LjI2YTIzLjg5LDIzLjg5LDAsMCwwLDMuOTMtMS40OWw2LDQuMzhhMS4zOCwxLjM4LDAsMCwwLC44LjI1LDEuMzQsMS4zNCwwLDAsMCwuOTItLjM1bDYuMjYtNS40OWExLjQsMS40LDAsMCwwLC4yOC0xLjcybC00LTYuNzVjLjMxLS41Ny42Mi0xLjEzLjg5LTEuNzNzLjQ4LTEuMTguNjktMS43OUw2NS42NSw0MmExLjM3LDEuMzcsMCwwLDAsMS4xLTEuMzRsMC04LjMzQTEuMzcsMS4zNywwLDAsMCw2NS42NiwzMWwtNy4yNC0xLjU5YTIzLjg5LDIzLjg5LDAsMCwwLTEuNDktMy45M2w0LjM5LTZhMS4zOCwxLjM4LDAsMCwwLS4xLTEuNzJsLTUuNDktNi4yNmExLjM5LDEuMzksMCwwLDAtMS0uNDYsMS40MiwxLjQyLDAsMCwwLS42OS4xOGwtNi43Niw0Yy0uNTYtLjMxLTEuMTEtLjY0LTEuNzItLjkxYTE5LjIsMTkuMiwwLDAsMC0xLjgyLS42OEw0Mi4yNCw1LjkyYTEuMzcsMS4zNywwLDAsMC0uODQtMWgwYTEuMzIsMS4zMiwwLDAsMC0uNDgtLjA5WiIgY2xhc3M9ImNscy0yIi8+PHBhdGggZD0iTTMxLjIyLDM0LjY0cy0xLjE4LjY4Ljg0LjkyYTE3LjU0LDE3LjU0LDAsMCwwLDYuNDEtLjI4LDExLjEzLDExLjEzLDAsMCwwLDEuNy44NGMtNi4wNSwyLjU5LTEzLjctLjE1LTktMS40OCIgY2xhc3M9ImNscy0yIi8+PHBhdGggZD0iTTMwLjQ4LDMxLjI1cy0xLjMyLDEsLjcsMS4xOWEyNS4xOCwyNS4xOCwwLDAsMCw4LjI2LS4zOSwzLjY5LDMuNjksMCwwLDAsMS4yOC43N0MzMy40LDM1LDI1LjI1LDMzLDMwLjQ4LDMxLjI1IiBjbGFzcz0iY2xzLTIiLz48cGF0aCBkPSJNMzYuNzIsMjUuNTFjMS40OSwxLjcyLS4zOSwzLjI2LS4zOSwzLjI2czMuNzgtMS45NSwyLTQuNEMzNi43NSwyMi4wOCwzNS41LDIxLDQyLjI1LDE3YzAsMC0xMC41OSwyLjY0LTUuNTMsOC40NyIgY2xhc3M9ImNscy0yIi8+PHBhdGggZD0iTTQ0LjcyLDM3LjE0cy44OC43Mi0xLDEuMjhjLTMuNDksMS4wNi0xNC41NCwxLjM4LTE3LjYxLDAtMS4xMS0uNDgsMS0xLjE1LDEuNjEtMS4yOGE0LjA3LDQuMDcsMCwwLDEsMS4wNy0uMTJjLTEuMjMtLjg3LTcuOTMsMS42OS0zLjQsMi40MywxMi4zNCwyLDIyLjQ5LS45MSwxOS4yOS0yLjM1IiBjbGFzcz0iY2xzLTIiLz48cGF0aCBkPSJNMzEuNzksMjcuNzRzLTUuNjIsMS4zNC0yLDEuODJhNDEuNTYsNDEuNTYsMCwwLDAsNy40My0uMDhjMi4zMy0uMTksNC42Ny0uNjEsNC42Ny0uNjFhOS44LDkuOCwwLDAsMC0xLjQyLjc2Yy01LjcsMS41LTE2LjczLjgtMTMuNTYtLjc0YTEwLjc3LDEwLjc3LDAsMCwxLDQuODctMS4xNSIgY2xhc3M9ImNscy0yIi8+PHBhdGggZD0iTTQxLjg3LDMzLjM4YzUuOC0zLDMuMTItNS45MSwxLjI1LTUuNTJhMy4zNywzLjM3LDAsMCwwLS42Ni4xOCwxLjA4LDEuMDgsMCwwLDEsLjQ5LS4zOWMzLjcxLTEuMyw2LjU1LDMuODQtMS4xOSw1Ljg4YS40My40MywwLDAsMCwuMTEtLjE1IiBjbGFzcz0iY2xzLTIiLz48cGF0aCBkPSJNMzguMzcsMTAuNzJzMy4yMiwzLjIyLTMsOC4xNmMtNSw0LTEuMTUsNi4yMywwLDguODEtMi45My0yLjY1LTUuMDktNS0zLjY0LTcuMTQsMi4xMi0zLjE4LDgtNC43Miw2LjY4LTkuODMiIGNsYXNzPSJjbHMtMiIvPjxwYXRoIGQ9Ik0zMi4zNiw0MS41NWM1LjU3LjM1LDE0LjEyLS4yLDE0LjMyLTIuODMsMCwwLS4zOSwxLTQuNiwxLjc5QTQ1LjY4LDQ1LjY4LDAsMCwxLDI4LDQwLjcycy43MS41OSw0LjM3LjgzIiBjbGFzcz0iY2xzLTIiLz48cGF0aCBkPSJNMjguNDgsNTAuNzFhMy43MywzLjczLDAsMCwxLS4xLjkzLDEuNzgsMS43OCwwLDAsMS0uMzIuNzEsMS41MiwxLjUyLDAsMCwxLS42MS40NCwyLjUyLDIuNTIsMCwwLDEtLjkzLjE1bC0uMzUsMC0uMzEtLjA3LS4yNS0uMDlhLjMzLjMzLDAsMCwxLS4xNC0uMDlsLS4wNi0uMDdhLjM2LjM2LDAsMCwxLDAtLjExLjc5Ljc5LDAsMCwxLDAtLjE3LDEuODUsMS44NSwwLDAsMSwwLS4yNWMwLS4xMywwLS4yNSwwLS4zNGEuNjkuNjksMCwwLDEsMC0uMjIuMTcuMTcsMCwwLDEsLjA2LS4xMS4xMi4xMiwwLDAsMSwuMDksMCwuMjQuMjQsMCwwLDEsLjEzLDBsLjE1LjA4LjIxLjA4YTEuMTEsMS4xMSwwLDAsMCwuMjgsMCwuNzYuNzYsMCwwLDAsLjI3LDAsLjQzLjQzLDAsMCwwLC4yLS4xNS41OS41OSwwLDAsMCwuMTItLjI5LDIuMDUsMi4wNSwwLDAsMCwwLS40N1Y0NS40NGEuMTguMTgsMCwwLDEsMC0uMS4zNS4zNSwwLDAsMSwuMTItLjA3LDEuMTEsMS4xMSwwLDAsMSwuMjQtLjA1aC43NWwuMjMuMDVhLjI2LjI2LDAsMCwxLC4xMy4wNy4xMy4xMywwLDAsMSwwLC4xWiIgY2xhc3M9ImNscy0yIi8+PHBhdGggZD0iTTM0LjQ5LDUyLjY0YS4xNS4xNSwwLDAsMS0uMDYuMTMuMzguMzgsMCwwLDEtLjE5LjA3bC0uMzcsMC0uMzgsMGEuMy4zLDAsMCwxLS4xNy0uMDcuMTQuMTQsMCwwLDEsMC0uMTN2LS40MWEyLjQzLDIuNDMsMCwwLDEtLjc0LjU0LDIuMjQsMi4yNCwwLDAsMS0uOTEuMTksMi42NSwyLjY1LDAsMCwxLS43Ny0uMTEsMS43MywxLjczLDAsMCwxLS42LS4zMiwxLjUyLDEuNTIsMCwwLDEtLjQtLjUzLDEuODgsMS44OCwwLDAsMS0uMTQtLjc0LDEuNjUsMS42NSwwLDAsMSwuMTgtLjc5LDEuNDksMS40OSwwLDAsMSwuNTMtLjU2LDIuNjEsMi42MSwwLDAsMSwuODgtLjMzLDYuNDQsNi40NCwwLDAsMSwxLjIzLS4xSDMzdi0uMzJhMS44MSwxLjgxLDAsMCwwLDAtLjQzLjgzLjgzLDAsMCwwLS4xNi0uMzEuNzMuNzMsMCwwLDAtLjMxLS4xOCwxLjU4LDEuNTgsMCwwLDAtLjQ3LS4wNiwyLjE5LDIuMTksMCwwLDAtLjY2LjA5LDMsMywwLDAsMC0uNTEuMTgsMi4xMywyLjEzLDAsMCwwLS4zNy4xOC42NC42NCwwLDAsMS0uMjUuMDguMTUuMTUsMCwwLDEtLjExLDAsLjI1LjI1LDAsMCwxLS4wOC0uMTIuNDguNDgsMCwwLDEtLjA1LS4xOCwxLDEsMCwwLDEsMC0uMjUsMS4xMiwxLjEyLDAsMCwxLDAtLjI5LjQxLjQxLDAsMCwxLC4xMS0uMTksMSwxLDAsMCwxLC4yOS0uMTksNCw0LDAsMCwxLC40OC0uMTljLjE4LDAsLjM4LS4xLjYtLjE0YTMuNjMsMy42MywwLDAsMSwuNjctLjA2LDQsNCwwLDAsMSwxLC4xMiwxLjg5LDEuODksMCwwLDEsLjcyLjM3LDEuNTQsMS41NCwwLDAsMSwuNDEuNjUsMy4xNiwzLjE2LDAsMCwxLC4xMy45M1pNMzMsNTAuNGgtLjU2YTIuNjgsMi42OCwwLDAsMC0uNjEuMDYuOS45LDAsMCwwLS40MS4xNi41NS41NSwwLDAsMC0uMjMuMjUuNzQuNzQsMCwwLDAtLjA4LjM0LjY3LjY3LDAsMCwwLC4yMS41Mi44Ni44NiwwLDAsMCwuNTguMTksMS4xNCwxLjE0LDAsMCwwLC41Ny0uMTYsMi40NSwyLjQ1LDAsMCwwLC41My0uNDdaIiBjbGFzcz0iY2xzLTIiLz48cGF0aCBkPSJNNDAuNiw0Ny4zOWEuMTcuMTcsMCwwLDEsMCwuMDcuMjguMjgsMCwwLDEsMCwuMDkuNS41LDAsMCwxLDAsLjEyLDEsMSwwLDAsMSwwLC4xNEwzOSw1Mi41NGEuMzQuMzQsMCwwLDEtLjA4LjE2LjI2LjI2LDAsMCwxLS4xNi4xLDEuODIsMS44MiwwLDAsMS0uMzEuMDVoLS41MmwtLjUsMGExLjExLDEuMTEsMCwwLDEtLjMxLS4wNS4zMS4zMSwwLDAsMS0uMTYtLjA5LjQ4LjQ4LDAsMCwxLS4wOC0uMTZsLTEuNTctNC43My0uMDYtLjIxYTEuMDUsMS4wNSwwLDAsMSwwLS4xM3YtLjA4YS4xNy4xNywwLDAsMSwwLS4xLjIzLjIzLDAsMCwxLC4xMS0uMDcuNjguNjgsMCwwLDEsLjIzLDBsLjM2LDAsLjM5LDAsLjIzLDBhLjE4LjE4LDAsMCwxLC4xMi4wOC42Ny42NywwLDAsMSwuMDYuMTJsMS4xOSwzLjgzLDAsLjE1LDAtLjE1LDEuMTctMy44M2EuMzMuMzMsMCwwLDEsMC0uMTIuMjUuMjUsMCwwLDEsLjEyLS4wOGwuMjIsMCwuMzYsMCwuMzYsMGEuNTYuNTYsMCwwLDEsLjIxLDAsLjIzLjIzLDAsMCwxLC4xMS4wN0EuMTcuMTcsMCwwLDEsNDAuNiw0Ny4zOVoiIGNsYXNzPSJjbHMtMiIvPjxwYXRoIGQ9Ik00NS43NCw1Mi42NGEuMTUuMTUsMCwwLDEtLjA2LjEzLjM4LjM4LDAsMCwxLS4xOC4wN2wtLjM3LDAtLjM5LDBhLjM0LjM0LDAsMCwxLS4xNy0uMDcuMTcuMTcsMCwwLDEsMC0uMTN2LS40MWEyLjM5LDIuMzksMCwwLDEtLjczLjU0LDIuMjksMi4yOSwwLDAsMS0uOTIuMTksMi41OCwyLjU4LDAsMCwxLS43Ni0uMTEsMS42OSwxLjY5LDAsMCwxLS42MS0uMzIsMS4zOCwxLjM4LDAsMCwxLS4zOS0uNTMsMS43MiwxLjcyLDAsMCwxLS4xNC0uNzQsMS42NSwxLjY1LDAsMCwxLC4xOC0uNzksMS4zNSwxLjM1LDAsMCwxLC41My0uNTYsMi42MSwyLjYxLDAsMCwxLC44OC0uMzMsNi4zNyw2LjM3LDAsMCwxLDEuMjMtLjFoLjUxdi0uMzJhMS44MSwxLjgxLDAsMCwwLDAtLjQzLjg1Ljg1LDAsMCwwLS4xNy0uMzEuNjkuNjksMCwwLDAtLjMtLjE4LDEuNjUsMS42NSwwLDAsMC0uNDgtLjA2LDIuMTcsMi4xNywwLDAsMC0uNjUuMDksMi44NiwyLjg2LDAsMCwwLS41Mi4xOCwyLjU3LDIuNTcsMCwwLDAtLjM3LjE4LjYuNiwwLDAsMS0uMjQuMDguMTcuMTcsMCwwLDEtLjEyLDAsLjM2LjM2LDAsMCwxLS4wOC0uMTIuNzguNzgsMCwwLDEsMC0uMTgsMiwyLDAsMCwxLDAtLjI1LDEuMTIsMS4xMiwwLDAsMSwwLS4yOS41Mi41MiwwLDAsMSwuMTEtLjE5LDEuMzIsMS4zMiwwLDAsMSwuMjktLjE5Yy4xNC0uMDYuMy0uMTMuNDgtLjE5bC42LS4xNGEzLjcxLDMuNzEsMCwwLDEsLjY3LS4wNiw0LjEzLDQuMTMsMCwwLDEsMS4wNi4xMiwxLjc3LDEuNzcsMCwwLDEsLjcxLjM3LDEuMzcsMS4zNywwLDAsMSwuNDEuNjUsMi44NiwyLjg2LDAsMCwxLC4xMy45M1pNNDQuMyw1MC40aC0uNTdhMi42OCwyLjY4LDAsMCwwLS42MS4wNiwxLDEsMCwwLDAtLjQxLjE2LjY4LjY4LDAsMCwwLS4yMy4yNS43NC43NCwwLDAsMC0uMDcuMzQuNjcuNjcsMCwwLDAsLjIxLjUyLjg1Ljg1LDAsMCwwLC41Ny4xOSwxLjExLDEuMTEsMCwwLDAsLjU3LS4xNiwyLjI3LDIuMjcsMCwwLDAsLjU0LS40N1oiIGNsYXNzPSJjbHMtMiIvPjwvZz48L2c+PC9zdmc+;" parent="3tbVtcQ5HgRzrrxqIutd-5" vertex="1">
                    <mxGeometry x="40" y="31" width="52" height="52" as="geometry"/>
                </mxCell>
                <mxCell id="3tbVtcQ5HgRzrrxqIutd-4" value="Basic Java Publisher" style="text;html=1;align=center;verticalAlign=middle;whiteSpace=wrap;rounded=0;" parent="3tbVtcQ5HgRzrrxqIutd-5" vertex="1">
                    <mxGeometry x="8" y="1" width="114" height="30" as="geometry"/>
                </mxCell>
                <mxCell id="3tbVtcQ5HgRzrrxqIutd-6" value="" style="group" parent="1" vertex="1" connectable="0">
                    <mxGeometry x="653" y="168" width="130" height="114" as="geometry"/>
                </mxCell>
                <mxCell id="3tbVtcQ5HgRzrrxqIutd-7" value="" style="rounded=0;whiteSpace=wrap;html=1;" parent="3tbVtcQ5HgRzrrxqIutd-6" vertex="1">
                    <mxGeometry width="130" height="114" as="geometry"/>
                </mxCell>
                <mxCell id="3tbVtcQ5HgRzrrxqIutd-8" value="" style="shape=image;verticalLabelPosition=bottom;labelBackgroundColor=default;verticalAlign=top;aspect=fixed;imageAspect=0;image=data:image/svg+xml,PHN2ZyB4bWxucz0iaHR0cDovL3d3dy53My5vcmcvMjAwMC9zdmciIHZpZXdCb3g9IjAgMCA3MiA3MiI+PGRlZnM+PHN0eWxlPi5jbHMtMXtmaWxsOiM0NmM3OTU7fS5jbHMtMntmaWxsOiNmZmY7fTwvc3R5bGU+PC9kZWZzPjxnIGRhdGEtbmFtZT0iTGF5ZXIgMiIgaWQ9IkxheWVyXzIiPjxnIGRhdGEtbmFtZT0iTGF5ZXIgNSIgaWQ9IkxheWVyXzUiPjxjaXJjbGUgcj0iMzYiIGN5PSIzNiIgY3g9IjM2IiBjbGFzcz0iY2xzLTEiLz48cGF0aCBkPSJNNDAuOTIsNi4zMmgwbS0uMTMsMCwxLjQ1LDcuNjEuMTYuODUuODIuMjkuMjcuMDlhMTUuMTIsMTUuMTIsMCwwLDEsMS40My41NGMuNDUuMi44OC40NSwxLjM0LjcxbC4yNS4xNC43NS40My43NS0uNDUsNi42Ni0zLjk0TDYwLDE4LjdsLTQuMzIsNS45MS0uNTMuNzIuMzkuODJBMjEuNjUsMjEuNjUsMCwwLDEsNTcsMjkuODJsLjI1Ljg3Ljg4LjIsNy4xMiwxLjU2LDAsOC4xM0w1Ny42Niw0MmwtLjg1LjE2LS4yOC44MSwwLC4xMWMtLjIuNTUtLjM4LDEuMDctLjYxLDEuNTdzLS41LDEtLjc5LDEuNTNMNTUsNDYuM2wtLjQxLjc1LjQzLjc0TDU5LDU0LjQ1bC02LjExLDUuMzZMNDcsNTUuNSw0Ni4yNiw1NWwtLjgxLjM5YTIxLjQ0LDIxLjQ0LDAsMCwxLTMuNjgsMS4zOWwtLjg2LjI1LS4yLjg4TDM5LjE0LDY1bC04LjEzLDAtMS40Ny03LjYyLS4xNi0uODQtLjgxLS4yOS0uMTQsMGMtLjU0LS4xOS0xLjA1LS4zNy0xLjU0LS41OXMtMS0uNDktMS40Ny0uNzdsLS4xMi0uMDctLjc1LS40MS0uNzQuNDQtNi42OSwzLjk0LTUuMzYtNi4xMSw0LjMyLTUuOTIuNTMtLjcyLS4zOS0uODFhMjIuMTIsMjIuMTIsMCwwLDEtMS40LTMuNjhsLS4yNC0uODctLjg4LS4xOUw2LjU3LDM4LjkybDAtOC4xMyw3LjU5LTEuNDYuODQtLjE2LjI5LS44MSwwLS4wOGMuMi0uNTYuMzktMS4xLjYyLTEuNjJzLjUtMSwuNzgtMS40OWwuMDUtLjEuNDItLjc1LS40NC0uNzRMMTIuOCwxNi45Mmw2LjExLTUuMzYsNS45LDQuMzEuNzIuNTMuODEtLjM5QTIyLjA4LDIyLjA4LDAsMCwxLDMwLDE0LjYybC44Ny0uMjUuMTktLjg4LDEuNTgtNy4xNCw4LjEzLDBtLjEzLTEuNWgwbC04LjMzLDBoMGExLjM3LDEuMzcsMCwwLDAtMS4zNCwxLjA2bC0xLjYsNy4yNmEyMy44OSwyMy44OSwwLDAsMC0zLjkzLDEuNDlsLTYtNC4zOGExLjM4LDEuMzgsMCwwLDAtLjgtLjI1LDEuMzksMS4zOSwwLDAsMC0uOTIuMzVsLTYuMjYsNS40OWExLjM5LDEuMzksMCwwLDAtLjI4LDEuNzJsNCw2Ljc1Yy0uMzEuNTYtLjYyLDEuMTEtLjg4LDEuNzFzLS40OSwxLjItLjcsMS44MUw2LjE1LDI5LjM0YTEuMzcsMS4zNywwLDAsMC0xLjEsMS4zNGwwLDguMzNhMS4zOCwxLjM4LDAsMCwwLDEuMDcsMS4zNUwxMy4zOCw0MmEyMy44OSwyMy44OSwwLDAsMCwxLjQ5LDMuOTNsLTQuMzksNmExLjM4LDEuMzgsMCwwLDAsLjEsMS43Mmw1LjQ5LDYuMjZhMS4zOSwxLjM5LDAsMCwwLDEsLjQ2LDEuNDUsMS40NSwwLDAsMCwuNjktLjE4bDYuNzgtNGMuNTYuMzEsMS4xMS42MiwxLjcuODhzMS4xOS40OCwxLjc5LjY5bDEuNSw3Ljc0YTEuMzcsMS4zNywwLDAsMCwxLjM0LDEuMWw4LjMzLDBoMGExLjM4LDEuMzgsMCwwLDAsMS4zNC0xLjA3bDEuNi03LjI2YTIzLjg5LDIzLjg5LDAsMCwwLDMuOTMtMS40OWw2LDQuMzhhMS4zOCwxLjM4LDAsMCwwLC44LjI1LDEuMzQsMS4zNCwwLDAsMCwuOTItLjM1bDYuMjYtNS40OWExLjQsMS40LDAsMCwwLC4yOC0xLjcybC00LTYuNzVjLjMxLS41Ny42Mi0xLjEzLjg5LTEuNzNzLjQ4LTEuMTguNjktMS43OUw2NS42NSw0MmExLjM3LDEuMzcsMCwwLDAsMS4xLTEuMzRsMC04LjMzQTEuMzcsMS4zNywwLDAsMCw2NS42NiwzMWwtNy4yNC0xLjU5YTIzLjg5LDIzLjg5LDAsMCwwLTEuNDktMy45M2w0LjM5LTZhMS4zOCwxLjM4LDAsMCwwLS4xLTEuNzJsLTUuNDktNi4yNmExLjM5LDEuMzksMCwwLDAtMS0uNDYsMS40MiwxLjQyLDAsMCwwLS42OS4xOGwtNi43Niw0Yy0uNTYtLjMxLTEuMTEtLjY0LTEuNzItLjkxYTE5LjIsMTkuMiwwLDAsMC0xLjgyLS42OEw0Mi4yNCw1LjkyYTEuMzcsMS4zNywwLDAsMC0uODQtMWgwYTEuMzIsMS4zMiwwLDAsMC0uNDgtLjA5WiIgY2xhc3M9ImNscy0yIi8+PHBhdGggZD0iTTMxLjIyLDM0LjY0cy0xLjE4LjY4Ljg0LjkyYTE3LjU0LDE3LjU0LDAsMCwwLDYuNDEtLjI4LDExLjEzLDExLjEzLDAsMCwwLDEuNy44NGMtNi4wNSwyLjU5LTEzLjctLjE1LTktMS40OCIgY2xhc3M9ImNscy0yIi8+PHBhdGggZD0iTTMwLjQ4LDMxLjI1cy0xLjMyLDEsLjcsMS4xOWEyNS4xOCwyNS4xOCwwLDAsMCw4LjI2LS4zOSwzLjY5LDMuNjksMCwwLDAsMS4yOC43N0MzMy40LDM1LDI1LjI1LDMzLDMwLjQ4LDMxLjI1IiBjbGFzcz0iY2xzLTIiLz48cGF0aCBkPSJNMzYuNzIsMjUuNTFjMS40OSwxLjcyLS4zOSwzLjI2LS4zOSwzLjI2czMuNzgtMS45NSwyLTQuNEMzNi43NSwyMi4wOCwzNS41LDIxLDQyLjI1LDE3YzAsMC0xMC41OSwyLjY0LTUuNTMsOC40NyIgY2xhc3M9ImNscy0yIi8+PHBhdGggZD0iTTQ0LjcyLDM3LjE0cy44OC43Mi0xLDEuMjhjLTMuNDksMS4wNi0xNC41NCwxLjM4LTE3LjYxLDAtMS4xMS0uNDgsMS0xLjE1LDEuNjEtMS4yOGE0LjA3LDQuMDcsMCwwLDEsMS4wNy0uMTJjLTEuMjMtLjg3LTcuOTMsMS42OS0zLjQsMi40MywxMi4zNCwyLDIyLjQ5LS45MSwxOS4yOS0yLjM1IiBjbGFzcz0iY2xzLTIiLz48cGF0aCBkPSJNMzEuNzksMjcuNzRzLTUuNjIsMS4zNC0yLDEuODJhNDEuNTYsNDEuNTYsMCwwLDAsNy40My0uMDhjMi4zMy0uMTksNC42Ny0uNjEsNC42Ny0uNjFhOS44LDkuOCwwLDAsMC0xLjQyLjc2Yy01LjcsMS41LTE2LjczLjgtMTMuNTYtLjc0YTEwLjc3LDEwLjc3LDAsMCwxLDQuODctMS4xNSIgY2xhc3M9ImNscy0yIi8+PHBhdGggZD0iTTQxLjg3LDMzLjM4YzUuOC0zLDMuMTItNS45MSwxLjI1LTUuNTJhMy4zNywzLjM3LDAsMCwwLS42Ni4xOCwxLjA4LDEuMDgsMCwwLDEsLjQ5LS4zOWMzLjcxLTEuMyw2LjU1LDMuODQtMS4xOSw1Ljg4YS40My40MywwLDAsMCwuMTEtLjE1IiBjbGFzcz0iY2xzLTIiLz48cGF0aCBkPSJNMzguMzcsMTAuNzJzMy4yMiwzLjIyLTMsOC4xNmMtNSw0LTEuMTUsNi4yMywwLDguODEtMi45My0yLjY1LTUuMDktNS0zLjY0LTcuMTQsMi4xMi0zLjE4LDgtNC43Miw2LjY4LTkuODMiIGNsYXNzPSJjbHMtMiIvPjxwYXRoIGQ9Ik0zMi4zNiw0MS41NWM1LjU3LjM1LDE0LjEyLS4yLDE0LjMyLTIuODMsMCwwLS4zOSwxLTQuNiwxLjc5QTQ1LjY4LDQ1LjY4LDAsMCwxLDI4LDQwLjcycy43MS41OSw0LjM3LjgzIiBjbGFzcz0iY2xzLTIiLz48cGF0aCBkPSJNMjguNDgsNTAuNzFhMy43MywzLjczLDAsMCwxLS4xLjkzLDEuNzgsMS43OCwwLDAsMS0uMzIuNzEsMS41MiwxLjUyLDAsMCwxLS42MS40NCwyLjUyLDIuNTIsMCwwLDEtLjkzLjE1bC0uMzUsMC0uMzEtLjA3LS4yNS0uMDlhLjMzLjMzLDAsMCwxLS4xNC0uMDlsLS4wNi0uMDdhLjM2LjM2LDAsMCwxLDAtLjExLjc5Ljc5LDAsMCwxLDAtLjE3LDEuODUsMS44NSwwLDAsMSwwLS4yNWMwLS4xMywwLS4yNSwwLS4zNGEuNjkuNjksMCwwLDEsMC0uMjIuMTcuMTcsMCwwLDEsLjA2LS4xMS4xMi4xMiwwLDAsMSwuMDksMCwuMjQuMjQsMCwwLDEsLjEzLDBsLjE1LjA4LjIxLjA4YTEuMTEsMS4xMSwwLDAsMCwuMjgsMCwuNzYuNzYsMCwwLDAsLjI3LDAsLjQzLjQzLDAsMCwwLC4yLS4xNS41OS41OSwwLDAsMCwuMTItLjI5LDIuMDUsMi4wNSwwLDAsMCwwLS40N1Y0NS40NGEuMTguMTgsMCwwLDEsMC0uMS4zNS4zNSwwLDAsMSwuMTItLjA3LDEuMTEsMS4xMSwwLDAsMSwuMjQtLjA1aC43NWwuMjMuMDVhLjI2LjI2LDAsMCwxLC4xMy4wNy4xMy4xMywwLDAsMSwwLC4xWiIgY2xhc3M9ImNscy0yIi8+PHBhdGggZD0iTTM0LjQ5LDUyLjY0YS4xNS4xNSwwLDAsMS0uMDYuMTMuMzguMzgsMCwwLDEtLjE5LjA3bC0uMzcsMC0uMzgsMGEuMy4zLDAsMCwxLS4xNy0uMDcuMTQuMTQsMCwwLDEsMC0uMTN2LS40MWEyLjQzLDIuNDMsMCwwLDEtLjc0LjU0LDIuMjQsMi4yNCwwLDAsMS0uOTEuMTksMi42NSwyLjY1LDAsMCwxLS43Ny0uMTEsMS43MywxLjczLDAsMCwxLS42LS4zMiwxLjUyLDEuNTIsMCwwLDEtLjQtLjUzLDEuODgsMS44OCwwLDAsMS0uMTQtLjc0LDEuNjUsMS42NSwwLDAsMSwuMTgtLjc5LDEuNDksMS40OSwwLDAsMSwuNTMtLjU2LDIuNjEsMi42MSwwLDAsMSwuODgtLjMzLDYuNDQsNi40NCwwLDAsMSwxLjIzLS4xSDMzdi0uMzJhMS44MSwxLjgxLDAsMCwwLDAtLjQzLjgzLjgzLDAsMCwwLS4xNi0uMzEuNzMuNzMsMCwwLDAtLjMxLS4xOCwxLjU4LDEuNTgsMCwwLDAtLjQ3LS4wNiwyLjE5LDIuMTksMCwwLDAtLjY2LjA5LDMsMywwLDAsMC0uNTEuMTgsMi4xMywyLjEzLDAsMCwwLS4zNy4xOC42NC42NCwwLDAsMS0uMjUuMDguMTUuMTUsMCwwLDEtLjExLDAsLjI1LjI1LDAsMCwxLS4wOC0uMTIuNDguNDgsMCwwLDEtLjA1LS4xOCwxLDEsMCwwLDEsMC0uMjUsMS4xMiwxLjEyLDAsMCwxLDAtLjI5LjQxLjQxLDAsMCwxLC4xMS0uMTksMSwxLDAsMCwxLC4yOS0uMTksNCw0LDAsMCwxLC40OC0uMTljLjE4LDAsLjM4LS4xLjYtLjE0YTMuNjMsMy42MywwLDAsMSwuNjctLjA2LDQsNCwwLDAsMSwxLC4xMiwxLjg5LDEuODksMCwwLDEsLjcyLjM3LDEuNTQsMS41NCwwLDAsMSwuNDEuNjUsMy4xNiwzLjE2LDAsMCwxLC4xMy45M1pNMzMsNTAuNGgtLjU2YTIuNjgsMi42OCwwLDAsMC0uNjEuMDYuOS45LDAsMCwwLS40MS4xNi41NS41NSwwLDAsMC0uMjMuMjUuNzQuNzQsMCwwLDAtLjA4LjM0LjY3LjY3LDAsMCwwLC4yMS41Mi44Ni44NiwwLDAsMCwuNTguMTksMS4xNCwxLjE0LDAsMCwwLC41Ny0uMTYsMi40NSwyLjQ1LDAsMCwwLC41My0uNDdaIiBjbGFzcz0iY2xzLTIiLz48cGF0aCBkPSJNNDAuNiw0Ny4zOWEuMTcuMTcsMCwwLDEsMCwuMDcuMjguMjgsMCwwLDEsMCwuMDkuNS41LDAsMCwxLDAsLjEyLDEsMSwwLDAsMSwwLC4xNEwzOSw1Mi41NGEuMzQuMzQsMCwwLDEtLjA4LjE2LjI2LjI2LDAsMCwxLS4xNi4xLDEuODIsMS44MiwwLDAsMS0uMzEuMDVoLS41MmwtLjUsMGExLjExLDEuMTEsMCwwLDEtLjMxLS4wNS4zMS4zMSwwLDAsMS0uMTYtLjA5LjQ4LjQ4LDAsMCwxLS4wOC0uMTZsLTEuNTctNC43My0uMDYtLjIxYTEuMDUsMS4wNSwwLDAsMSwwLS4xM3YtLjA4YS4xNy4xNywwLDAsMSwwLS4xLjIzLjIzLDAsMCwxLC4xMS0uMDcuNjguNjgsMCwwLDEsLjIzLDBsLjM2LDAsLjM5LDAsLjIzLDBhLjE4LjE4LDAsMCwxLC4xMi4wOC42Ny42NywwLDAsMSwuMDYuMTJsMS4xOSwzLjgzLDAsLjE1LDAtLjE1LDEuMTctMy44M2EuMzMuMzMsMCwwLDEsMC0uMTIuMjUuMjUsMCwwLDEsLjEyLS4wOGwuMjIsMCwuMzYsMCwuMzYsMGEuNTYuNTYsMCwwLDEsLjIxLDAsLjIzLjIzLDAsMCwxLC4xMS4wN0EuMTcuMTcsMCwwLDEsNDAuNiw0Ny4zOVoiIGNsYXNzPSJjbHMtMiIvPjxwYXRoIGQ9Ik00NS43NCw1Mi42NGEuMTUuMTUsMCwwLDEtLjA2LjEzLjM4LjM4LDAsMCwxLS4xOC4wN2wtLjM3LDAtLjM5LDBhLjM0LjM0LDAsMCwxLS4xNy0uMDcuMTcuMTcsMCwwLDEsMC0uMTN2LS40MWEyLjM5LDIuMzksMCwwLDEtLjczLjU0LDIuMjksMi4yOSwwLDAsMS0uOTIuMTksMi41OCwyLjU4LDAsMCwxLS43Ni0uMTEsMS42OSwxLjY5LDAsMCwxLS42MS0uMzIsMS4zOCwxLjM4LDAsMCwxLS4zOS0uNTMsMS43MiwxLjcyLDAsMCwxLS4xNC0uNzQsMS42NSwxLjY1LDAsMCwxLC4xOC0uNzksMS4zNSwxLjM1LDAsMCwxLC41My0uNTYsMi42MSwyLjYxLDAsMCwxLC44OC0uMzMsNi4zNyw2LjM3LDAsMCwxLDEuMjMtLjFoLjUxdi0uMzJhMS44MSwxLjgxLDAsMCwwLDAtLjQzLjg1Ljg1LDAsMCwwLS4xNy0uMzEuNjkuNjksMCwwLDAtLjMtLjE4LDEuNjUsMS42NSwwLDAsMC0uNDgtLjA2LDIuMTcsMi4xNywwLDAsMC0uNjUuMDksMi44NiwyLjg2LDAsMCwwLS41Mi4xOCwyLjU3LDIuNTcsMCwwLDAtLjM3LjE4LjYuNiwwLDAsMS0uMjQuMDguMTcuMTcsMCwwLDEtLjEyLDAsLjM2LjM2LDAsMCwxLS4wOC0uMTIuNzguNzgsMCwwLDEsMC0uMTgsMiwyLDAsMCwxLDAtLjI1LDEuMTIsMS4xMiwwLDAsMSwwLS4yOS41Mi41MiwwLDAsMSwuMTEtLjE5LDEuMzIsMS4zMiwwLDAsMSwuMjktLjE5Yy4xNC0uMDYuMy0uMTMuNDgtLjE5bC42LS4xNGEzLjcxLDMuNzEsMCwwLDEsLjY3LS4wNiw0LjEzLDQuMTMsMCwwLDEsMS4wNi4xMiwxLjc3LDEuNzcsMCwwLDEsLjcxLjM3LDEuMzcsMS4zNywwLDAsMSwuNDEuNjUsMi44NiwyLjg2LDAsMCwxLC4xMy45M1pNNDQuMyw1MC40aC0uNTdhMi42OCwyLjY4LDAsMCwwLS42MS4wNiwxLDEsMCwwLDAtLjQxLjE2LjY4LjY4LDAsMCwwLS4yMy4yNS43NC43NCwwLDAsMC0uMDcuMzQuNjcuNjcsMCwwLDAsLjIxLjUyLjg1Ljg1LDAsMCwwLC41Ny4xOSwxLjExLDEuMTEsMCwwLDAsLjU3LS4xNiwyLjI3LDIuMjcsMCwwLDAsLjU0LS40N1oiIGNsYXNzPSJjbHMtMiIvPjwvZz48L2c+PC9zdmc+;" parent="3tbVtcQ5HgRzrrxqIutd-6" vertex="1">
                    <mxGeometry x="40" y="31" width="52" height="52" as="geometry"/>
                </mxCell>
                <mxCell id="3tbVtcQ5HgRzrrxqIutd-9" value="Basic Java Subscriber" style="text;html=1;align=center;verticalAlign=middle;whiteSpace=wrap;rounded=0;" parent="3tbVtcQ5HgRzrrxqIutd-6" vertex="1">
                    <mxGeometry x="4.5" width="121" height="30" as="geometry"/>
                </mxCell>
                <mxCell id="3tbVtcQ5HgRzrrxqIutd-11" value="" style="group" parent="1" vertex="1" connectable="0">
                    <mxGeometry x="240" y="70" width="240" height="310" as="geometry"/>
                </mxCell>
                <mxCell id="3tbVtcQ5HgRzrrxqIutd-10" value="" style="rounded=1;whiteSpace=wrap;html=1;" parent="3tbVtcQ5HgRzrrxqIutd-11" vertex="1">
                    <mxGeometry width="240" height="310" as="geometry"/>
                </mxCell>
                <mxCell id="3tbVtcQ5HgRzrrxqIutd-70" style="edgeStyle=orthogonalEdgeStyle;rounded=0;orthogonalLoop=1;jettySize=auto;html=1;exitX=0;exitY=0.75;exitDx=0;exitDy=0;entryX=0;entryY=0.75;entryDx=0;entryDy=0;strokeColor=#435cc8;" parent="3tbVtcQ5HgRzrrxqIutd-11" source="3tbVtcQ5HgRzrrxqIutd-12" target="3tbVtcQ5HgRzrrxqIutd-14" edge="1">
                    <mxGeometry relative="1" as="geometry">
                        <Array as="points">
                            <mxPoint x="60" y="168"/>
                            <mxPoint x="60" y="261"/>
                        </Array>
                    </mxGeometry>
                </mxCell>
                <mxCell id="3tbVtcQ5HgRzrrxqIutd-71" style="edgeStyle=orthogonalEdgeStyle;rounded=0;orthogonalLoop=1;jettySize=auto;html=1;exitX=1;exitY=0.75;exitDx=0;exitDy=0;entryX=0;entryY=0.5;entryDx=0;entryDy=0;strokeColor=#435cc8;" parent="3tbVtcQ5HgRzrrxqIutd-11" source="3tbVtcQ5HgRzrrxqIutd-12" target="3tbVtcQ5HgRzrrxqIutd-14" edge="1">
                    <mxGeometry relative="1" as="geometry">
                        <mxPoint x="100" y="240" as="targetPoint"/>
                        <Array as="points">
                            <mxPoint x="165" y="168"/>
                            <mxPoint x="165" y="202"/>
                            <mxPoint x="70" y="202"/>
                            <mxPoint x="70" y="248"/>
                        </Array>
                    </mxGeometry>
                </mxCell>
                <mxCell id="3tbVtcQ5HgRzrrxqIutd-12" value="" style="shape=image;editableCssRules=.*;verticalLabelPosition=bottom;labelBackgroundColor=default;verticalAlign=top;aspect=fixed;imageAspect=0;image=data:image/svg+xml,PHN2ZyB4bWxucz0iaHR0cDovL3d3dy53My5vcmcvMjAwMC9zdmciIHZpZXdCb3g9IjAgMCA3MiA3MiI+PGRlZnM+PHN0eWxlPi5jbHMtMXtmaWxsOiMzMzM7fS5jbHMtMntmaWxsOiNmZmY7fTwvc3R5bGU+PC9kZWZzPjxnIGRhdGEtbmFtZT0iTGF5ZXIgMiIgaWQ9IkxheWVyXzIiPjxnIGRhdGEtbmFtZT0iTGF5ZXIgNSIgaWQ9IkxheWVyXzUiPjxjaXJjbGUgcj0iMzYiIGN5PSIzNiIgY3g9IjM2IiBjbGFzcz0iY2xzLTEiLz48cGF0aCBkPSJNMTYuMDUsNTIuMzNoMS44YTIuOCwyLjgsMCwwLDAsMi44LTIuOFYxNy40M2EyLjgsMi44LDAsMCwwLTIuOC0yLjhoLTEuOGEyLjgsMi44LDAsMCwwLTIuOCwyLjh2MzIuMUEyLjY4LDIuNjgsMCwwLDAsMTYuMDUsNTIuMzNabS0xLjgtMzQuOWExLjc5LDEuNzksMCwwLDEsMS44LTEuOGgxLjhhMS43OSwxLjc5LDAsMCwxLDEuOCwxLjh2MzIuMWExLjc5LDEuNzksMCwwLDEtMS44LDEuOGgtMS44YTEuNzMsMS43MywwLDAsMS0xLjgtMS44WiIgY2xhc3M9ImNscy0yIi8+PHBhdGggZD0iTTI5LjE2LDUwLjUzbDAsLjA3WiIgY2xhc3M9ImNscy0yIi8+PHBhdGggZD0iTTI4LjkzLDUxbC0uMDUuMDlaIiBjbGFzcz0iY2xzLTIiLz48cGF0aCBkPSJNMjcuNTUsNTIuMTRhMy42NiwzLjY2LDAsMCwxLS40NC4xM0EzLjY2LDMuNjYsMCwwLDAsMjcuNTUsNTIuMTRaIiBjbGFzcz0iY2xzLTIiLz48cGF0aCBkPSJNMjguNjcsNTEuMzVsLS4xNC4xNloiIGNsYXNzPSJjbHMtMiIvPjxwYXRoIGQ9Ik0yOCw1MS45MWEyLjkzLDIuOTMsMCwwLDEtLjM5LjIxQTIuOTMsMi45MywwLDAsMCwyOCw1MS45MVoiIGNsYXNzPSJjbHMtMiIvPjxwYXRoIGQ9Ik0yMiw0OS41NGEyLjc0LDIuNzQsMCwwLDAsMi43OSwyLjc5QTIuOCwyLjgsMCwwLDEsMjIsNDkuNTRaIiBjbGFzcz0iY2xzLTIiLz48cGF0aCBkPSJNMjguMzYsNTEuNjVhMi42NSwyLjY1LDAsMCwxLS4yNi4yMUExLjgzLDEuODMsMCwwLDAsMjguMzYsNTEuNjVaIiBjbGFzcz0iY2xzLTIiLz48cGF0aCBkPSJNMjQuNzUsNTIuMzNoMS44YTIuNjcsMi42NywwLDAsMCwuNTYtLjA2LDIuNiwyLjYsMCwwLDEtLjU2LjA2WiIgY2xhc3M9ImNscy0yIi8+PHBhdGggZD0iTTY5LjI1LDMzLjIzLDYyLDI5djMuM2gtNC41djE4LjVhMy44NiwzLjg2LDAsMCwxLTMuOCwzLjhIMTUuNDVhMy44NiwzLjg2LDAsMCwxLTMuOC0zLjhWMzIuMzNIMi44NVYzNEgxMHYxNi44YTUuNTEsNS41MSwwLDAsMCw1LjQsNS40aDM4LjNhNS41MSw1LjUxLDAsMCwwLDUuNC01LjRWMzRINjJ2My40WiIgY2xhc3M9ImNscy0yIi8+PHBhdGggZD0iTTI4LjUzLDUxLjUxbC0uMTcuMTRaIiBjbGFzcz0iY2xzLTIiLz48cGF0aCBkPSJNMjguMSw1MS44NmwtLjA5LDBaIiBjbGFzcz0iY2xzLTIiLz48cGF0aCBkPSJNMjguODgsNTEuMDhhMi43OCwyLjc4LDAsMCwxLS4yMS4yN1oiIGNsYXNzPSJjbHMtMiIvPjxwYXRoIGQ9Ik0yOS4yOSw1MC4wOWEzLjY2LDMuNjYsMCwwLDEtLjEzLjQ0QTMuMTksMy4xOSwwLDAsMCwyOS4yOSw1MC4wOVoiIGNsYXNzPSJjbHMtMiIvPjxwYXRoIGQ9Ik0yNy42Miw1Mi4xMmwtLjA3LDBaIiBjbGFzcz0iY2xzLTIiLz48cGF0aCBkPSJNMjkuMTMsNTAuNmExLjc5LDEuNzksMCwwLDEtLjIuMzlBMS43OSwxLjc5LDAsMCwwLDI5LjEzLDUwLjZaIiBjbGFzcz0iY2xzLTIiLz48cGF0aCBkPSJNMjIsNDkuNTNoMGEyLjgsMi44LDAsMCwwLDIuNzksMi43OWgxLjgxYTIuNiwyLjYsMCwwLDAsLjU2LS4wNiwzLjY2LDMuNjYsMCwwLDAsLjQ0LS4xM2wuMDcsMGEyLjkzLDIuOTMsMCwwLDAsLjM5LS4yMWwuMDksMGEyLjY1LDIuNjUsMCwwLDAsLjI2LS4yMWwuMTctLjE0LjE0LS4xNmEyLjc4LDIuNzgsMCwwLDAsLjIxLS4yN2wuMDUtLjA5YTEuNzksMS43OSwwLDAsMCwuMi0uMzlsMC0uMDdhMy42NiwzLjY2LDAsMCwwLC4xMy0uNDQsMi42LDIuNiwwLDAsMCwuMDYtLjU2VjE3LjRhMy4wNywzLjA3LDAsMCwwLS4wNi0uNTMsMi41OSwyLjU5LDAsMCwwLS4xNC0uNDUuMTQuMTQsMCwwLDAsMC0uMDYsMi4zOCwyLjM4LDAsMCwwLS4yLS4zOWwtLjA1LS4wOWEyLjc4LDIuNzgsMCwwLDAtLjIxLS4yN2wtLjE0LS4xNi0uMTctLjE0YTIuNjUsMi42NSwwLDAsMC0uMjYtLjIxbC0uMDksMGEyLjkzLDIuOTMsMCwwLDAtLjM5LS4yMWwtLjA4LDBhMy4wNiwzLjA2LDAsMCwwLS40My0uMTMsMi42LDIuNiwwLDAsMC0uNTYtLjA2aC0xLjhhMi42LDIuNiwwLDAsMC0uNTYuMDYsMy42NiwzLjY2LDAsMCwwLS40NC4xM2wtLjA4LDBhMi44MiwyLjgyLDAsMCwwLS4zOC4yMWwtLjEsMGMtLjA5LjA2LS4xNy4xNC0uMjYuMjFsLS4xNi4xNC0uMTQuMTZhMi43OCwyLjc4LDAsMCwwLS4yMS4yN2wtLjA1LjA5YTIuNDIsMi40MiwwLDAsMC0uMjEuMzlzMCwwLDAsLjA2LS4xLjMtLjE0LjQ1YTMuMDcsMy4wNywwLDAsMC0uMDUuNTNWNDkuNTNabTEtMzIuMWExLjc5LDEuNzksMCwwLDEsMS44LTEuOGgxLjhhMS43OSwxLjc5LDAsMCwxLDEuOCwxLjh2MzIuMWExLjc5LDEuNzksMCwwLDEtMS44LDEuOGgtMS44YTEuNzksMS43OSwwLDAsMS0xLjgtMS44WiIgY2xhc3M9ImNscy0yIi8+PHBhdGggZD0iTTM5LjM1LDE3LjQzdjMyLjFhMi42OCwyLjY4LDAsMCwwLDIuOCwyLjhoMS43YTIuOCwyLjgsMCwwLDAsMi44LTIuOFYxNy40M2EyLjgsMi44LDAsMCwwLTIuOC0yLjhoLTEuN0EyLjgsMi44LDAsMCwwLDM5LjM1LDE3LjQzWm0xLDBhMS43OSwxLjc5LDAsMCwxLDEuOC0xLjhINDRhMS43OSwxLjc5LDAsMCwxLDEuOCwxLjh2MzIuMWExLjc5LDEuNzksMCwwLDEtMS44LDEuOGgtMS44YTEuNzMsMS43MywwLDAsMS0xLjgtMS44WiIgY2xhc3M9ImNscy0yIi8+PHBhdGggZD0iTTQ4LjIyLDE3LjQzdjMyLjFhMi42OCwyLjY4LDAsMCwwLDIuOCwyLjhoMS43YTIuOCwyLjgsMCwwLDAsMi44LTIuOFYxNy40M2EyLjgsMi44LDAsMCwwLTIuOC0yLjhINTFBMi44LDIuOCwwLDAsMCw0OC4yMiwxNy40M1ptMSwwYTEuNzksMS43OSwwLDAsMSwxLjgtMS44aDEuOGExLjc5LDEuNzksMCwwLDEsMS44LDEuOHYzMi4xYTEuNzksMS43OSwwLDAsMS0xLjgsMS44SDUxYTEuNzMsMS43MywwLDAsMS0xLjgtMS44WiIgY2xhc3M9ImNscy0yIi8+PHBhdGggZD0iTTMwLjY1LDE3LjQzdjMyLjFhMi42OCwyLjY4LDAsMCwwLDIuOCwyLjhoMS43YTIuOCwyLjgsMCwwLDAsMi44LTIuOFYxNy40M2EyLjgsMi44LDAsMCwwLTIuOC0yLjhoLTEuN0EyLjgsMi44LDAsMCwwLDMwLjY1LDE3LjQzWm0uOSwwYTEuNzksMS43OSwwLDAsMSwxLjgtMS44aDEuOGExLjc5LDEuNzksMCwwLDEsMS44LDEuOHYzMi4xYTEuNzksMS43OSwwLDAsMS0xLjgsMS44aC0xLjhhMS43MywxLjczLDAsMCwxLTEuOC0xLjhaIiBjbGFzcz0iY2xzLTIiLz48L2c+PC9nPjwvc3ZnPg==;" parent="3tbVtcQ5HgRzrrxqIutd-11" vertex="1">
                    <mxGeometry x="95" y="130" width="50" height="50" as="geometry"/>
                </mxCell>
                <mxCell id="3tbVtcQ5HgRzrrxqIutd-13" value="Messaging Queue" style="text;html=1;align=center;verticalAlign=middle;whiteSpace=wrap;rounded=0;" parent="3tbVtcQ5HgRzrrxqIutd-11" vertex="1">
                    <mxGeometry x="70" y="100" width="100" height="30" as="geometry"/>
                </mxCell>
                <mxCell id="3tbVtcQ5HgRzrrxqIutd-14" value="" style="shape=image;editableCssRules=.*;verticalLabelPosition=bottom;labelBackgroundColor=default;verticalAlign=top;aspect=fixed;imageAspect=0;image=data:image/svg+xml,PHN2ZyB4bWxucz0iaHR0cDovL3d3dy53My5vcmcvMjAwMC9zdmciIHZpZXdCb3g9IjAgMCA3MiA3MiI+PGRlZnM+PHN0eWxlPi5jbHMtMXtmaWxsOiMzMzM7fS5jbHMtMntmaWxsOiNmZmY7fTwvc3R5bGU+PC9kZWZzPjxnIGRhdGEtbmFtZT0iTGF5ZXIgMiIgaWQ9IkxheWVyXzIiPjxnIGRhdGEtbmFtZT0iTGF5ZXIgNSIgaWQ9IkxheWVyXzUiPjxjaXJjbGUgcj0iMzYiIGN5PSIzNiIgY3g9IjM2IiBjbGFzcz0iY2xzLTEiLz48cGF0aCBkPSJNNDIsNTIuMzNoMS44YTIuOCwyLjgsMCwwLDAsMi44LTIuOFYxNy40M2EyLjgsMi44LDAsMCwwLTIuOC0yLjhINDJhMi44LDIuOCwwLDAsMC0yLjgsMi44djMyLjFBMi44LDIuOCwwLDAsMCw0Miw1Mi4zM1oiIGNsYXNzPSJjbHMtMiIvPjxwYXRoIGQ9Ik0zMC43LDE3LjQzdjMyLjFhMi42OCwyLjY4LDAsMCwwLDIuOCwyLjhoMS43YTIuOCwyLjgsMCwwLDAsMi44LTIuOFYxNy40M2EyLjgsMi44LDAsMCwwLTIuOC0yLjhIMzMuNUEyLjgsMi44LDAsMCwwLDMwLjcsMTcuNDNabTEsMGExLjc5LDEuNzksMCwwLDEsMS44LTEuOGgxLjhhMS43OSwxLjc5LDAsMCwxLDEuOCwxLjh2MzIuMWExLjc5LDEuNzksMCwwLDEtMS44LDEuOEgzMy41YTEuNzMsMS43MywwLDAsMS0xLjgtMS44WiIgY2xhc3M9ImNscy0yIi8+PHBhdGggZD0iTTIyLDE3LjQzdjMyLjFoMGEyLjc5LDIuNzksMCwwLDAsMi43OSwyLjhIMjYuNWEyLjgsMi44LDAsMCwwLDIuOC0yLjhWMTcuNDNhMi44LDIuOCwwLDAsMC0yLjgtMi44SDI0LjhBMi44LDIuOCwwLDAsMCwyMiwxNy40M1ptMSwwYTEuNzksMS43OSwwLDAsMSwxLjgtMS44aDEuOGExLjc5LDEuNzksMCwwLDEsMS44LDEuOHYzMi4xYTEuNzksMS43OSwwLDAsMS0xLjgsMS44SDI0LjhhMS42OCwxLjY4LDAsMCwxLTEuOC0xLjhaIiBjbGFzcz0iY2xzLTIiLz48cGF0aCBkPSJNMTMuMywxNy40M3YzMi4xYTIuNjgsMi42OCwwLDAsMCwyLjgsMi44aDEuN2EyLjgsMi44LDAsMCwwLDIuOC0yLjhWMTcuNDNhMi44LDIuOCwwLDAsMC0yLjgtMi44SDE2LjFBMi44LDIuOCwwLDAsMCwxMy4zLDE3LjQzWm0xLDBhMS43OSwxLjc5LDAsMCwxLDEuOC0xLjhoMS44YTEuNzksMS43OSwwLDAsMSwxLjgsMS44djMyLjFhMS43OSwxLjc5LDAsMCwxLTEuOCwxLjhIMTYuMWExLjczLDEuNzMsMCwwLDEtMS44LTEuOFoiIGNsYXNzPSJjbHMtMiIvPjxwYXRoIGQ9Ik02OS4yLDMzLjIzLDYxLjksMjl2My4zSDU3LjR2MTguNWEzLjY1LDMuNjUsMCwwLDEtLjA4Ljc0LDQuNDcsNC40NywwLDAsMS0uMi42NXMwLDAsMCwuMDVhMy41NSwzLjU1LDAsMCwxLS4zLjU0LjM5LjM5LDAsMCwxLS4wNi4xMSwzLjI2LDMuMjYsMCwwLDEtLjI5LjM2bC0uMTguMjItLjIyLjE4Yy0uMTIuMS0uMjMuMjEtLjM2LjNsLS4xLjA1YTQuMjEsNC4yMSwwLDAsMS0uNTUuM2wwLDBhNC40Nyw0LjQ3LDAsMCwxLS42NS4yLDMuNjUsMy42NSwwLDAsMS0uNzQuMDhIMTUuMzlhMy41NSwzLjU1LDAsMCwxLS43My0uMDgsNC42LDQuNiwwLDAsMS0uNjYtLjJsMCwwYTQuMjEsNC4yMSwwLDAsMS0uNTUtLjNsLS4xLS4wNWEzLjU4LDMuNTgsMCwwLDEtLjM2LS4zbC0uMjItLjE4Yy0uMDctLjA3LS4xMi0uMTUtLjE4LS4yMmEzLjM3LDMuMzcsMCwwLDEtLjMtLjM2czAtLjA3LS4wNi0uMTFhMy41LDMuNSwwLDAsMS0uMjktLjU0czAsMCwwLS4wNWEzLjUsMy41LDAsMCwxLS4yLS42NSwzLjY1LDMuNjUsMCwwLDEtLjA4LS43NFYzMi4zM0gyLjhWMzRIMTB2MTYuOGE1LjUxLDUuNTEsMCwwLDAsNS40LDUuNEg1My41YTUuNTEsNS41MSwwLDAsMCw1LjQtNS40VjM0aDN2My4zNGw3LjI5LTQuMTRaIiBjbGFzcz0iY2xzLTIiLz48cGF0aCBkPSJNNDgsNDkuNTNoMGEyLjgsMi44LDAsMCwwLDIuNzksMi43OUg1Mi42YTIuNiwyLjYsMCwwLDAsLjU2LS4wNiwzLjY2LDMuNjYsMCwwLDAsLjQ0LS4xM2wuMDcsMGEyLjkzLDIuOTMsMCwwLDAsLjM5LS4yMWwuMDksMGEyLjY1LDIuNjUsMCwwLDAsLjI2LS4yMWwuMTctLjE0LjE0LS4xNmEyLjc4LDIuNzgsMCwwLDAsLjIxLS4yN0w1NSw1MWExLjc5LDEuNzksMCwwLDAsLjItLjM5bDAtLjA3YTMuNjYsMy42NiwwLDAsMCwuMTMtLjQ0LDIuNiwyLjYsMCwwLDAsLjA2LS41NlYxNy40YTMuMDcsMy4wNywwLDAsMC0uMDYtLjUzLDMuODEsMy44MSwwLDAsMC0uMTMtLjQ1bDAtLjA2QTIuMzgsMi4zOCwwLDAsMCw1NSwxNmwwLS4wOWEyLjc4LDIuNzgsMCwwLDAtLjIxLS4yN2wtLjE0LS4xNi0uMTctLjE0YTEuODMsMS44MywwLDAsMC0uMjYtLjIxbC0uMDksMGEyLjkzLDIuOTMsMCwwLDAtLjM5LS4yMWwtLjA4LDBhMy4wNiwzLjA2LDAsMCwwLS40My0uMTMsMi42LDIuNiwwLDAsMC0uNTYtLjA2SDUwLjhhMi42LDIuNiwwLDAsMC0uNTYuMDYsMy42NiwzLjY2LDAsMCwwLS40NC4xM2wtLjA4LDBhMi44MiwyLjgyLDAsMCwwLS4zOC4yMWwtLjA5LDBhMi43OCwyLjc4LDAsMCwwLS4yNy4yMWwtLjE2LjE0LS4xNC4xNmEyLjc4LDIuNzgsMCwwLDAtLjIxLjI3bDAsLjA5YTIuNDIsMi40MiwwLDAsMC0uMjEuMzlzMCwwLDAsLjA2LS4xLjMtLjE0LjQ1YTMuMDcsMy4wNywwLDAsMCwwLC41M1Y0OS41M1oiIGNsYXNzPSJjbHMtMiIvPjwvZz48L2c+PC9zdmc+;" parent="3tbVtcQ5HgRzrrxqIutd-11" vertex="1">
                    <mxGeometry x="95" y="223" width="50" height="50" as="geometry"/>
                </mxCell>
                <mxCell id="3tbVtcQ5HgRzrrxqIutd-15" value="Tracing Queue" style="text;html=1;align=center;verticalAlign=middle;whiteSpace=wrap;rounded=0;" parent="3tbVtcQ5HgRzrrxqIutd-11" vertex="1">
                    <mxGeometry x="70" y="200" width="100" height="30" as="geometry"/>
                </mxCell>
                <mxCell id="3tbVtcQ5HgRzrrxqIutd-68" value="q" style="text;html=1;align=center;verticalAlign=middle;whiteSpace=wrap;rounded=0;" parent="3tbVtcQ5HgRzrrxqIutd-11" vertex="1">
                    <mxGeometry x="90" y="172" width="60" height="30" as="geometry"/>
                </mxCell>
                <mxCell id="3tbVtcQ5HgRzrrxqIutd-69" value="#telemetry-trace" style="text;html=1;align=center;verticalAlign=middle;whiteSpace=wrap;rounded=0;" parent="3tbVtcQ5HgRzrrxqIutd-11" vertex="1">
                    <mxGeometry x="75" y="269" width="90" height="30" as="geometry"/>
                </mxCell>
                <mxCell id="yvF3iTE31LWRvtUjP0S4-18" value="" style="shape=image;verticalLabelPosition=bottom;verticalAlign=top;imageAspect=0;aspect=fixed;image=data:image/svg+xml,PHN2ZyB4bWxucz0iaHR0cDovL3d3dy53My5vcmcvMjAwMC9zdmciIHZpZXdCb3g9IjAgMCA3Ni4zNyA1Ni4wNCI+PGRlZnM+PHN0eWxlPi5jbHMtMXtmaWxsOiM0NmM3OTU7fS5jbHMtMntmaWxsOiNmZmY7fTwvc3R5bGU+PC9kZWZzPjxnIGRhdGEtbmFtZT0iTGF5ZXIgMiIgaWQ9IkxheWVyXzIiPjxnIGRhdGEtbmFtZT0iTGF5ZXIgNSIgaWQ9IkxheWVyXzUiPjxwYXRoIGQ9Ik0xNC40MSw1NmwtMy4yMS0xQTE2LjM5LDE2LjM5LDAsMCwxLDAsMzkuMzRDMCwzMiw0LjQ3LDI1LjI0LDEwLjY5LDIzLjE4Yy41MS01LjIyLDIuOTEtOS41Nyw2LjYyLTEyYTEyLjczLDEyLjczLDAsMCwxLDctMi4wNiwxMy4xLDEzLjEsMCwwLDEsNC4yNC43MUExOS40MiwxOS40MiwwLDAsMSw0NS4xNywwQzU2Ljc0LDAsNjQuMjgsMTAuMTIsNjUsMjAuMDVhMTcuOTMsMTcuOTMsMCwwLDEsMTAsMTAuMzcsMjAuOSwyMC45LDAsMCwxLS44MiwxNi4yOEExNS43MiwxNS43MiwwLDAsMSw2MC4xOSw1NkgxNC40MVoiIGNsYXNzPSJjbHMtMSIvPjxwYXRoIGQ9Ik01OS43NywyMi41OWgtNy43VjE5LjI0YTMuMjcsMy4yNywwLDEsMC0xLjkyLDB2My4zNkgzOS45NFYxMy45MmEzLjI4LDMuMjgsMCwxLDAtMS44OSwwdjguNjNIMjcuN1YxOS4yNmEzLjI5LDMuMjksMCwxLDAtMS44NSwwdjMuMzVoLTcuN0E0LjM5LDQuMzksMCwwLDAsMTMuNzYsMjd2Ny40M2E0LjM4LDQuMzgsMCwwLDAsNC4zOSw0LjM4aDcuN3YzLjM2YTMuMjUsMy4yNSwwLDEsMCwxLjg1LDBWMzguNzlIMzguMDV2OC42NGEzLjI2LDMuMjYsMCwxLDAsMS44OSwwVjM4Ljc5SDUwLjE1djMuMzZhMy4yNCwzLjI0LDAsMCwwLTIuMzMsMy4xMSwzLjI3LDMuMjcsMCwxLDAsNC4yNS0zLjFWMzguNzloNy43YTQuMzksNC4zOSwwLDAsMCw0LjM5LTQuMzhWMjdBNC40LDQuNCwwLDAsMCw1OS43NywyMi41OVoiIGNsYXNzPSJjbHMtMiIvPjxwYXRoIGQ9Ik0yNS4yMSwzNGMwLC4xMiwwLC4yMiwwLC4yOXMwLC4xNSwwLC4yMWwtLjA2LjE1YS45Mi45MiwwLDAsMS0uMTEuMTQsMS4yNCwxLjI0LDAsMCwxLS4yOS4yLDMuMjIsMy4yMiwwLDAsMS0uNTIuMjMsNC4xNyw0LjE3LDAsMCwxLS43Mi4xOSw0LjU3LDQuNTcsMCwwLDEtLjg2LjA4QTQuNyw0LjcsMCwwLDEsMjEsMzUuMmEzLjM3LDMuMzcsMCwwLDEtMS4yNS0uODRBMy43NiwzLjc2LDAsMCwxLDE4Ljk0LDMzLDYuMzEsNi4zMSwwLDAsMSwxOC42NywzMWE2LjI1LDYuMjUsMCwwLDEsLjMtMiw0LjIyLDQuMjIsMCwwLDEsLjg0LTEuNDcsMy42NiwzLjY2LDAsMCwxLDEuMjktLjksNC41MSw0LjUxLDAsMCwxLDEuNjctLjMxLDQuMTcsNC4xNywwLDAsMSwuNzEuMDcsMy42MiwzLjYyLDAsMCwxLC42My4xNiwyLjQ4LDIuNDgsMCwwLDEsLjUyLjIzQTEuMzIsMS4zMiwwLDAsMSwyNSwyN2EuNjQuNjQsMCwwLDEsLjEyLjE1LjM4LjM4LDAsMCwxLC4wNi4xNmMwLC4wNiwwLC4xNCwwLC4yMmEzLjIyLDMuMjIsMCwwLDEsMCwuMzNjMCwuMTMsMCwuMjUsMCwuMzRhMS4xMSwxLjExLDAsMCwxLS4wNS4yNC4zMi4zMiwwLDAsMS0uMDguMTMuMjUuMjUsMCwwLDEtLjExLDAsLjQ2LjQ2LDAsMCwxLS4yNi0uMTIsNC44OSw0Ljg5LDAsMCwwLS40MS0uMjcsMi42OSwyLjY5LDAsMCwwLS41OS0uMjYsMi41NSwyLjU1LDAsMCwwLS44My0uMTIsMi4wNiwyLjA2LDAsMCwwLS45NC4yMSwyLDIsMCwwLDAtLjcuNjIsMi42NiwyLjY2LDAsMCwwLS40NCwxLDUuMDUsNS4wNSwwLDAsMC0uMTUsMS4yOCw0LjksNC45LDAsMCwwLC4xNiwxLjM1LDIuNDMsMi40MywwLDAsMCwuNDYuOTQsMS43MywxLjczLDAsMCwwLC43MS41NSwyLjQsMi40LDAsMCwwLC45NS4xOCwyLjYxLDIuNjEsMCwwLDAsLjgzLS4xMSwzLjM5LDMuMzksMCwwLDAsLjYtLjI1LDQuMzcsNC4zNywwLDAsMCwuNDEtLjI1LjQ4LjQ4LDAsMCwxLC4yNC0uMWMuMDUsMCwuMDksMCwuMTEsMGEuMjMuMjMsMCwwLDEsLjA3LjExLDEuMDcsMS4wNywwLDAsMSwwLC4yM0EzLjg0LDMuODQsMCwwLDEsMjUuMjEsMzRaIi8+PHBhdGggZD0iTTMxLjM2LDM0LjU4YTMuMzIsMy4zMiwwLDAsMSwwLC4zNSwxLjE0LDEuMTQsMCwwLDEtLjA1LjIzLjI2LjI2LDAsMCwxLS4wOC4xMy4xOS4xOSwwLDAsMS0uMTIsMEgyN2EuNTcuNTcsMCwwLDEtLjM4LS4xMy41NS41NSwwLDAsMS0uMTUtLjQzdi04YS4xOS4xOSwwLDAsMSwwLS4xMi4zNS4zNSwwLDAsMSwuMTUtLjA5LDEuNDMsMS40MywwLDAsMSwuMjgtLjA1LDIuNjksMi42OSwwLDAsMSwuNDMsMCwyLjc2LDIuNzYsMCwwLDEsLjQ0LDAsMS40NiwxLjQ2LDAsMCwxLC4yNy4wNS4zNS4zNSwwLDAsMSwuMTUuMDkuMTkuMTksMCwwLDEsMCwuMTJ2Ny4xMmgyLjc5YS4xOS4xOSwwLDAsMSwuMTIsMCwuMjMuMjMsMCwwLDEsLjA4LjEyLDEsMSwwLDAsMSwuMDUuMjNBMy4xMSwzLjExLDAsMCwxLDMxLjM2LDM0LjU4WiIvPjxwYXRoIGQ9Ik00MC4xMywzMC44MWE2LjY2LDYuNjYsMCwwLDEtLjI3LDJBNCw0LDAsMCwxLDM5LDM0LjI1YTMuNDksMy40OSwwLDAsMS0xLjMzLjkyLDQuODEsNC44MSwwLDAsMS0xLjg1LjMyLDUuNSw1LjUsMCwwLDEtMS44LS4yNywzLjExLDMuMTEsMCwwLDEtMS4yOC0uODJBMy41NSwzLjU1LDAsMCwxLDMyLDMzYTcuMSw3LjEsMCwwLDEtLjI1LTJBNi41LDYuNSwwLDAsMSwzMiwyOWEzLjg3LDMuODcsMCwwLDEsLjgxLTEuNDUsMy41NSwzLjU1LDAsMCwxLDEuMzQtLjkzQTUsNSwwLDAsMSwzNiwyNi4zM2E1LjMxLDUuMzEsMCwwLDEsMS43Ny4yNywzLjE0LDMuMTQsMCwwLDEsMS4yOS44MiwzLjY1LDMuNjUsMCwwLDEsLjc4LDEuNEE2Ljg2LDYuODYsMCwwLDEsNDAuMTMsMzAuODFabS0xLjg5LjA5YTYuMTYsNi4xNiwwLDAsMC0uMTEtMS4yNiwyLjYsMi42LDAsMCwwLS4zNy0xLDEuNzgsMS43OCwwLDAsMC0uNy0uNjNBMi4zOCwyLjM4LDAsMCwwLDM2LDI3LjgxYTIuMjIsMi4yMiwwLDAsMC0xLjExLjI1LDIsMiwwLDAsMC0uNzIuNjYsMi43NSwyLjc1LDAsMCwwLS4zOCwxLDUuNTUsNS41NSwwLDAsMC0uMTIsMS4xOCw3LjMzLDcuMzMsMCwwLDAsLjExLDEuMywyLjkxLDIuOTEsMCwwLDAsLjM3LDEsMS42OCwxLjY4LDAsMCwwLC43LjYyLDIuNCwyLjQsMCwwLDAsMS4xLjIyQTIuMjIsMi4yMiwwLDAsMCwzNywzMy43NmEyLDIsMCwwLDAsLjcxLS42NywyLjU3LDIuNTcsMCwwLDAsLjM5LTFBNS42OSw1LjY5LDAsMCwwLDM4LjI0LDMwLjlaIi8+PHBhdGggZD0iTTQ4Ljg2LDMyYTQuMTgsNC4xOCwwLDAsMS0uMjQsMS40NiwyLjg0LDIuODQsMCwwLDEtLjcsMS4wOCwzLjE0LDMuMTQsMCwwLDEtMS4xNS42OCw1LDUsMCwwLDEtMS41Ny4yMyw0Ljk0LDQuOTQsMCwwLDEtMS41LS4yMSwyLjkyLDIuOTIsMCwwLDEtMS4xMi0uNjMsMi42MywyLjYzLDAsMCwxLS43LTEuMDYsNC4xMyw0LjEzLDAsMCwxLS4yNS0xLjQ4VjI2LjczYS4yMS4yMSwwLDAsMSwwLS4xMnMuMDctLjA2LjE0LS4wOWwuMjgtLjA1YTQuNzQsNC43NCwwLDAsMSwuODcsMCwxLjQ2LDEuNDYsMCwwLDEsLjI3LjA1LjM1LjM1LDAsMCwxLC4xNS4wOS4xOS4xOSwwLDAsMSwwLC4xMlYzMmEzLjA3LDMuMDcsMCwwLDAsLjEzLjkxLDEuNzQsMS43NCwwLDAsMCwuMzcuNjQsMS42NiwxLjY2LDAsMCwwLC41OS4zOCwyLjE5LDIuMTksMCwwLDAsLjc1LjEyLDIsMiwwLDAsMCwuNzYtLjEzLDEuNTYsMS41NiwwLDAsMCwuNTctLjM3LDIsMiwwLDAsMCwuMzYtLjYyLDIuNjQsMi42NCwwLDAsMCwuMTItLjgzVjI2LjczYS4yOC4yOCwwLDAsMSwwLS4xMi4zNS4zNSwwLDAsMSwuMTUtLjA5LDEuNDYsMS40NiwwLDAsMSwuMjctLjA1LDIuODIsMi44MiwwLDAsMSwuNDQsMCwyLjc1LDIuNzUsMCwwLDEsLjQzLDAsMS40NiwxLjQ2LDAsMCwxLC4yNy4wNS4zOC4zOCwwLDAsMSwuMTQuMDkuMTkuMTksMCwwLDEsMCwuMTJaIi8+PHBhdGggZD0iTTU4LjEzLDMwLjc4YTYuMDYsNi4wNiwwLDAsMS0uMzIsMi4wOCwzLjQxLDMuNDEsMCwwLDEtLjkxLDEuNDEsMy42MiwzLjYyLDAsMCwxLTEuNDUuODEsNy4wNiw3LjA2LDAsMCwxLTIsLjI1SDUxLjMxYS41Ny41NywwLDAsMS0uMzgtLjEzLjU1LjU1LDAsMCwxLS4xNS0uNDNWMjcuMDZhLjU2LjU2LDAsMCwxLC4xNS0uNDQuNTcuNTcsMCwwLDEsLjM4LS4xM2gyLjI3YTYuMjEsNi4yMSwwLDAsMSwyLC4yOCwzLjUyLDMuNTIsMCwwLDEsMS4zOS44MiwzLjY0LDMuNjQsMCwwLDEsLjg2LDEuMzRBNS40OCw1LjQ4LDAsMCwxLDU4LjEzLDMwLjc4Wm0tMS44Ni4wNmE0LjM2LDQuMzYsMCwwLDAtLjE1LTEuMTcsMi40LDIuNCwwLDAsMC0uNDctLjkzLDIuMTYsMi4xNiwwLDAsMC0uODMtLjYyLDMuMzgsMy4zOCwwLDAsMC0xLjM0LS4yMmgtLjkxdjZoLjk0YTMuNDgsMy40OCwwLDAsMCwxLjI0LS4xOSwyLjEyLDIuMTIsMCwwLDAsLjg1LS41OCwyLjQzLDIuNDMsMCwwLDAsLjUtMUE0Ljg1LDQuODUsMCwwLDAsNTYuMjcsMzAuODRaIi8+PC9nPjwvZz48L3N2Zz4=;" parent="3tbVtcQ5HgRzrrxqIutd-11" vertex="1">
                    <mxGeometry x="73" y="10" width="94" height="69.26" as="geometry"/>
                </mxCell>
                <mxCell id="3tbVtcQ5HgRzrrxqIutd-16" value="" style="rounded=0;whiteSpace=wrap;html=1;" parent="1" vertex="1">
                    <mxGeometry x="280" y="440" width="160" height="140" as="geometry"/>
                </mxCell>
                <mxCell id="3tbVtcQ5HgRzrrxqIutd-17" value="" style="shape=image;verticalLabelPosition=bottom;verticalAlign=top;imageAspect=0;aspect=fixed;image=data:image/svg+xml,PHN2ZyB4bWxucz0iaHR0cDovL3d3dy53My5vcmcvMjAwMC9zdmciIHZpZXdCb3g9IjAgMCAxMjggMTI4Ij4mI3hhOyAgPHBhdGggZD0iTTY3LjY0OCA2OS43OTdjLTUuMjQ2IDUuMjUtNS4yNDYgMTMuNzU4IDAgMTkuMDA4IDUuMjUgNS4yNDYgMTMuNzU4IDUuMjQ2IDE5LjAwNCAwIDUuMjUtNS4yNSA1LjI1LTEzLjc1OCAwLTE5LjAwOC01LjI0Ni01LjI0Ni0xMy43NTQtNS4yNDYtMTkuMDA0IDBabTE0LjIwNyAxNC4yMTlhNi42NDkgNi42NDkgMCAwIDEtOS40MSAwIDYuNjUgNi42NSAwIDAgMSAwLTkuNDA3IDYuNjQ5IDYuNjQ5IDAgMCAxIDkuNDEgMGMyLjU5OCAyLjU4NiAyLjU5OCA2LjgwOSAwIDkuNDA3Wk04Ni40MyAzLjY3MmwtOC4yMzUgOC4yMzRhNC4xNyA0LjE3IDAgMCAwIDAgNS44NzVsMzIuMTQ5IDMyLjE0OWE0LjE3IDQuMTcgMCAwIDAgNS44NzUgMGw4LjIzNC04LjIzNWMxLjYxLTEuNjEgMS42MS00LjI2MSAwLTUuODdMOTIuMjkgMy42NzFhNC4xNTkgNC4xNTkgMCAwIDAtNS44NiAwWk0yOC43MzggMTA4Ljg5NWEzLjc2MyAzLjc2MyAwIDAgMCAwLTUuMzFsLTQuMTgzLTQuMTg3YTMuNzY4IDMuNzY4IDAgMCAwLTUuMzEzIDBsLTguNjQ0IDguNjQ5LS4wMTYuMDEyLTIuMzcxLTIuMzc1Yy0xLjMxMy0xLjMxMy0zLjQ1LTEuMzEzLTQuNzUgMC0xLjMxMyAxLjMxMi0xLjMxMyAzLjQ0OSAwIDQuNzVsMTQuMjQ2IDE0LjI0MmEzLjM1MyAzLjM1MyAwIDAgMCA0Ljc0NiAwYzEuMy0xLjMxMyAxLjMxMy0zLjQ1IDAtNC43NDZsLTIuMzc1LTIuMzc1LjAxNi0uMDEyWm0wIDAiIGZpbGw9IiNmNWE4MDAiLz4mI3hhOyAgPHBhdGggZD0iTTcyLjI5NyAyNy4zMTMgNTQuMDA0IDQ1LjYwNWMtMS42MjUgMS42MjUtMS42MjUgNC4zMDEgMCA1LjkyNkw2NS4zIDYyLjgyNGM3Ljk4NC01Ljc0NiAxOS4xOC01LjAzNSAyNi4zNjMgMi4xNTNsOS4xNDgtOS4xNDljMS42MjItMS42MjUgMS42MjItNC4yOTcgMC01LjkyMkw3OC4yMiAyNy4zMTNhNC4xODUgNC4xODUgMCAwIDAtNS45MjIgMFpNNjAuNTUgNjcuNTg1bC02LjY3Mi02LjY3MmMtMS41NjMtMS41NjItNC4xMjUtMS41NjItNS42ODQgMGwtMjMuNTMgMjMuNTRhNC4wMzYgNC4wMzYgMCAwIDAgMCA1LjY4N2wxMy4zMzEgMTMuMzMyYTQuMDM2IDQuMDM2IDAgMCAwIDUuNjg4IDBsMTUuMTMyLTE1LjE1N2MtMy4xOTktNi42MDktMi42MjUtMTQuNTkzIDEuNzM1LTIwLjczWm0wIDAiIGZpbGw9IiM0MjVjYzciLz4mI3hhOzwvc3ZnPg==" parent="1" vertex="1">
                    <mxGeometry x="338.5" y="488.5" width="43" height="43" as="geometry"/>
                </mxCell>
                <mxCell id="3tbVtcQ5HgRzrrxqIutd-18" value="Solace OpenTelemetry&amp;nbsp;Collector" style="text;html=1;align=center;verticalAlign=middle;whiteSpace=wrap;rounded=0;" parent="1" vertex="1">
                    <mxGeometry x="330" y="440" width="60" height="30" as="geometry"/>
                </mxCell>
                <mxCell id="3tbVtcQ5HgRzrrxqIutd-58" style="edgeStyle=orthogonalEdgeStyle;rounded=0;orthogonalLoop=1;jettySize=auto;html=1;exitX=0.5;exitY=1;exitDx=0;exitDy=0;entryX=0.448;entryY=0;entryDx=0;entryDy=0;entryPerimeter=0;strokeWidth=6;strokeColor=#f6a800;" parent="1" source="3tbVtcQ5HgRzrrxqIutd-16" target="3tbVtcQ5HgRzrrxqIutd-57" edge="1">
                    <mxGeometry relative="1" as="geometry"/>
                </mxCell>
                <mxCell id="3tbVtcQ5HgRzrrxqIutd-59" style="edgeStyle=orthogonalEdgeStyle;rounded=0;orthogonalLoop=1;jettySize=auto;html=1;exitX=1;exitY=0.5;exitDx=0;exitDy=0;entryX=0.813;entryY=-0.007;entryDx=0;entryDy=0;entryPerimeter=0;strokeWidth=3;strokeColor=#435cc8;" parent="1" source="3tbVtcQ5HgRzrrxqIutd-14" target="3tbVtcQ5HgRzrrxqIutd-16" edge="1">
                    <mxGeometry relative="1" as="geometry"/>
                </mxCell>
                <mxCell id="3tbVtcQ5HgRzrrxqIutd-60" style="edgeStyle=orthogonalEdgeStyle;rounded=0;orthogonalLoop=1;jettySize=auto;html=1;exitX=0.5;exitY=1;exitDx=0;exitDy=0;entryX=0.5;entryY=0;entryDx=0;entryDy=0;strokeWidth=3;strokeColor=#435cc8;" parent="1" source="3tbVtcQ5HgRzrrxqIutd-8" target="3" edge="1">
                    <mxGeometry relative="1" as="geometry"/>
                </mxCell>
                <mxCell id="3tbVtcQ5HgRzrrxqIutd-61" style="edgeStyle=orthogonalEdgeStyle;rounded=0;orthogonalLoop=1;jettySize=auto;html=1;exitX=0.5;exitY=1;exitDx=0;exitDy=0;entryX=0.5;entryY=1;entryDx=0;entryDy=0;strokeWidth=3;strokeColor=#435cc8;" parent="1" source="3tbVtcQ5HgRzrrxqIutd-2" target="3" edge="1">
                    <mxGeometry relative="1" as="geometry">
                        <Array as="points">
                            <mxPoint x="76" y="1000"/>
                            <mxPoint x="720" y="1000"/>
                        </Array>
                    </mxGeometry>
                </mxCell>
                <mxCell id="3tbVtcQ5HgRzrrxqIutd-63" value="Solace Cloud Hosted AWS" style="text;html=1;align=center;verticalAlign=middle;whiteSpace=wrap;rounded=0;" parent="1" vertex="1">
                    <mxGeometry x="190" y="40" width="160" height="30" as="geometry"/>
                </mxCell>
                <mxCell id="3tbVtcQ5HgRzrrxqIutd-64" value="" style="group" parent="1" vertex="1" connectable="0">
                    <mxGeometry x="180" y="680" width="380" height="188" as="geometry"/>
                </mxCell>
                <mxCell id="3tbVtcQ5HgRzrrxqIutd-20" value="" style="rounded=0;whiteSpace=wrap;html=1;" parent="3tbVtcQ5HgRzrrxqIutd-64" vertex="1">
                    <mxGeometry width="380" height="188" as="geometry"/>
                </mxCell>
                <mxCell id="3tbVtcQ5HgRzrrxqIutd-57" value="Solace Insights Powered by DataDog" style="text;html=1;align=center;verticalAlign=middle;whiteSpace=wrap;rounded=0;" parent="3tbVtcQ5HgRzrrxqIutd-64" vertex="1">
                    <mxGeometry x="85" width="210" height="30" as="geometry"/>
                </mxCell>
                <mxCell id="yvF3iTE31LWRvtUjP0S4-1" value="" style="shape=image;editableCssRules=.*;verticalLabelPosition=bottom;verticalAlign=top;imageAspect=0;aspect=fixed;image=data:image/svg+xml,PHN2ZyB4bWxucz0iaHR0cDovL3d3dy53My5vcmcvMjAwMC9zdmciIHZpZXdCb3g9IjAgMCA3MiA3MiI+PGRlZnM+PHN0eWxlPi5jbHMtMXtmaWxsOiMzMzM7fS5jbHMtMntmaWxsOiNmZmY7fTwvc3R5bGU+PC9kZWZzPjxnIGRhdGEtbmFtZT0iTGF5ZXIgMiIgaWQ9IkxheWVyXzIiPjxnIGRhdGEtbmFtZT0iTGF5ZXIgNSIgaWQ9IkxheWVyXzUiPjxjaXJjbGUgcj0iMzYiIGN5PSIzNiIgY3g9IjM2IiBjbGFzcz0iY2xzLTEiLz48cGF0aCBkPSJNMzQuMiwzOWEyNy42OSwyNy42OSwwLDAsMS00LjUtMy43Yy0uMS0uMS0uMS0uNi0uMS0uNmEyNCwyNCwwLDAsMCw3LDMuOCw1LjM3LDUuMzcsMCwwLDAsNC40LS40LDEwLjg0LDEwLjg0LDAsMCwwLDMuNC0zbC4yLjNhNy4yNiw3LjI2LDAsMCwxLS42LDEuNCw0LjE4LDQuMTgsMCwwLDAsMSwuNGwyLjctLjRhOC4xMyw4LjEzLDAsMCwwLC45LTYuNCwxNC45NCwxNC45NCwwLDAsMC0yLjgtNC4yYy0uNS0uNS4xLTIuNi0xLTQuOC0xLjEtMi40LTQuMS00LjgtNS40LTUuOS40LjMsMi43LDEuMiwzLjgsMi42LjEtLjEuMS0uOS4yLTFhNy43Nyw3Ljc3LDAsMCwxLTEtNCw3LDcsMCwwLDAtLjUtMi4zLDMuNzgsMy43OCwwLDAsMSwxLjIsMiw4LjQ0LDguNDQsMCwwLDAsMS43LDMuN2MxLjUsMS45LDIuOSwyLjksMy42LDIuMi44LS45LS45LTQuNy0zLTYuOC0yLjUtMi41LTMuMi0yLjItNC43LTEuNi0xLjIuNC0xLjgsMy44LTQuOSwzLjdhMjAuMDgsMjAuMDgsMCwwLDAtMi41LS4xYy4zLS41LjYtLjkuNi0uOWExOS4xNywxOS4xNywwLDAsMC0xLjkuOWwtLjEtLjFhNy4xOSw3LjE5LDAsMCwxLC42LTFzLS44LjUtMS42LDEuMWEyLjE4LDIuMTgsMCwwLDEsLjctMS4yLDUuMjYsNS4yNiwwLDAsMC0yLjQsMS43LDE4LjI2LDE4LjI2LDAsMCwwLTMuMSwxLjIsNS4yMiw1LjIyLDAsMCwxLTMuOC0yLjQsMi40MSwyLjQxLDAsMCwwLTMuMS0uNmMtMS44LjctNCwxLjctNCwxLjdoMS41Yy0xLC40LTIuMS45LTIuMS45aDEuMWMtLjQuMy0uNi41LTEsLjhhMTAuNTUsMTAuNTUsMCwwLDAtMS43LDEuNSwxMC42LDEwLjYsMCwwLDEsMS4yLS41Yy0uNC45LTEuMiwxLjYtMS4xLDIuOGE4LjY4LDguNjgsMCwwLDAsMy4xLDQuNWMuMS4xLDIuNCwyLjIsNC4xLDEuM3MyLjQtMS42LDIuNy0yLjguMS0yLjQtLjYtNS4zYy0uMi0xLS44LTIuOS0xLjEtMy45aC4xQTQ2LjY0LDQ2LjY0LDAsMCwxLDI0LDIwYy45LDMuMi42LDQuOS4yLDUuNS0xLjIsMS44LTQuNCwyLjEtNS45LDEuMWExMy40MywxMy40MywwLDAsMCwuOCw1LjgsOC4zMyw4LjMzLDAsMCwwLC40LDIuNSwzLjYzLDMuNjMsMCwwLDEsLjMtMS4xLDguNjIsOC42MiwwLDAsMCwuNSwxLjksNC4yOCw0LjI4LDAsMCwxLC4yLTEuMiw4Ljc0LDguNzQsMCwwLDAsLjgsMSw2Ljc1LDYuNzUsMCwwLDAsLjgsMS42LDIuODksMi44OSwwLDAsMSwwLTEsNi45Myw2LjkzLDAsMCwxLDEuNyw0LjZjLjQsMy45LTYuMiw3LTcuNCw5LjUtMSwxLjUtMS41LDMuNy4xLDUuMSwzLjksMy4zLDIuNCw0LjIsNC40LDUuNiwyLjcsMiw2LjEsMS4xLDcuMi0uNSwxLjYtMi4yLDEuMi00LjMuNi02LjMtLjUtMS41LTEuNy00LjEtMy4zLTUuMWE3LjMxLDcuMzEsMCwwLDAtNC41LTEuMWwuMS0uMWE2LjgzLDYuODMsMCwwLDEsNS4zLjgsOS40Miw5LjQyLDAsMCwxLDMuOSw1LjZjLjktLjEsMS0uMiwxLjgtLjNsLTEuOC0xNC4yWm05LjItMTcuN2MxLjcuOCwxLjUsMi4zLDEuNSwzLjF2LjVhMi44NywyLjg3LDAsMCwwLTEuMi0uMi45LjksMCwwLDAtLjUuMSwzLjI2LDMuMjYsMCwwLDEtMS4zLTEuN2MwLS4xLS4xLS4xLS4xLS4ydi0uMWMtLjItLjYtLjEtLjcsMC0uOXMuNC0uMy0uMS0uNWgtLjFDNDEuOCwyMS4xMyw0Mi43LDIxLDQzLjQsMjEuMzNaTTQxLjMsMzFhOC45Miw4LjkyLDAsMCwxLDMuMi0uOSw2LjQ3LDYuNDcsMCwwLDEsMiwwYy40LjIuNCwxLC4xLDEuNy0uNCwxLTEsMi4xLTEuNywyLjJhNS4yLDUuMiwwLDAsMS0zLjQtMS40QTEsMSwwLDAsMSw0MS4zLDMxWm0tMTAuOC03LjZjMS44LTEuMiw0LjEtLjcsMy43LS40LS43LjcuMi41LjQsMS44YTIsMiwwLDAsMS0uNSwxLjgsMTIuMjcsMTIuMjcsMCwwLDAtMi4xLjVjLS41LjItLjkuMy0xLjMuNS0uMS0uMS0uMi0uMS0uMy0uM0EyLjUsMi41LDAsMCwxLDMwLjUsMjMuNDNaIiBjbGFzcz0iY2xzLTIiLz48cGF0aCBkPSJNNTcuNiwzNiw0MywzOC43M2E3LjYzLDcuNjMsMCwwLDEtMS43LDEuNSw1LjM3LDUuMzcsMCwwLDEtNC4yLjRjLS43LS4yLTEuMS0uMy0xLjctLjVsLTMuNi41TDM0LDU4LjczbDI1LTQuNVpNMzUuMyw1Ni44M2wtLjItMiw0LjEtNi4yTDQzLjgsNTBsNC02LjcsNC44LDMuMiwzLjYtNy42LDEuMywxMy45WiIgY2xhc3M9ImNscy0yIi8+PC9nPjwvZz48L3N2Zz4=" parent="3tbVtcQ5HgRzrrxqIutd-64" vertex="1">
                    <mxGeometry x="140" y="70.00000000000023" width="72" height="72" as="geometry"/>
                </mxCell>
                <mxCell id="yvF3iTE31LWRvtUjP0S4-17" value="" style="group;rotation=90;" parent="3tbVtcQ5HgRzrrxqIutd-64" vertex="1" connectable="0">
                    <mxGeometry x="9.999999999999998" y="48.65" width="150" height="114.71" as="geometry"/>
                </mxCell>
                <mxCell id="yvF3iTE31LWRvtUjP0S4-2" value="" style="fillColor=#10739E;strokeColor=none;rotation=90;" parent="yvF3iTE31LWRvtUjP0S4-17" vertex="1">
                    <mxGeometry x="32.64705882352941" y="-46.76638461538461" width="26.470588235294116" height="88.23846153846154" as="geometry"/>
                </mxCell>
                <mxCell id="yvF3iTE31LWRvtUjP0S4-3" value="" style="shape=mxgraph.arrows2.arrow;dy=0.4;dx=16;notch=0;direction=north;fillColor=#1699D3;strokeColor=none;rotation=90;" parent="yvF3iTE31LWRvtUjP0S4-2" vertex="1">
                    <mxGeometry x="-10.588235294117647" y="13.235769230769229" width="21.176470588235293" height="61.76692307692307" as="geometry"/>
                </mxCell>
                <mxCell id="yvF3iTE31LWRvtUjP0S4-5" value="" style="fillColor=#F2931E;strokeColor=none;rotation=90;" parent="yvF3iTE31LWRvtUjP0S4-17" vertex="1">
                    <mxGeometry x="41.470588235294116" y="-24.70676923076923" width="26.470588235294116" height="105.88615384615383" as="geometry"/>
                </mxCell>
                <mxCell id="yvF3iTE31LWRvtUjP0S4-6" value="" style="shape=mxgraph.arrows2.arrow;dy=0.4;dx=16;notch=0;direction=south;fillColor=#F5AB50;strokeColor=none;rotation=90;" parent="yvF3iTE31LWRvtUjP0S4-5" vertex="1">
                    <mxGeometry x="20.294117647058822" y="17.647692307692303" width="21.176470588235293" height="70.59076923076921" as="geometry"/>
                </mxCell>
                <mxCell id="yvF3iTE31LWRvtUjP0S4-8" value="" style="fillColor=#AE4132;strokeColor=none;rotation=90;" parent="yvF3iTE31LWRvtUjP0S4-17" vertex="1">
                    <mxGeometry x="45.88235294117647" y="1.7647692307692306" width="26.470588235294116" height="114.71" as="geometry"/>
                </mxCell>
                <mxCell id="yvF3iTE31LWRvtUjP0S4-9" value="" style="shape=mxgraph.arrows2.arrow;dy=0.4;dx=16;notch=0;direction=north;fillColor=#E85642;strokeColor=none;rotation=90;" parent="yvF3iTE31LWRvtUjP0S4-8" vertex="1">
                    <mxGeometry x="-32.64705882352941" y="35.29538461538461" width="21.176470588235293" height="44.11923076923077" as="geometry"/>
                </mxCell>
                <mxCell id="yvF3iTE31LWRvtUjP0S4-11" value="" style="fillColor=#12AAB5;strokeColor=none;rotation=90;" parent="yvF3iTE31LWRvtUjP0S4-17" vertex="1">
                    <mxGeometry x="23.823529411764707" y="54.70784615384615" width="26.470588235294116" height="70.59076923076923" as="geometry"/>
                </mxCell>
                <mxCell id="yvF3iTE31LWRvtUjP0S4-12" value="" style="shape=mxgraph.arrows2.arrow;dy=0.4;dx=16;notch=0;direction=south;fillColor=#64BBE2;strokeColor=none;rotation=90;" parent="yvF3iTE31LWRvtUjP0S4-11" vertex="1">
                    <mxGeometry x="24.705882352941174" y="22.059615384615384" width="21.176470588235293" height="26.471538461538458" as="geometry"/>
                </mxCell>
                <mxCell id="yvF3iTE31LWRvtUjP0S4-14" value="" style="fillColor=#23445D;strokeColor=none;rotation=90;" parent="yvF3iTE31LWRvtUjP0S4-17" vertex="1">
                    <mxGeometry x="19.41176470588235" y="90.00323076923077" width="26.470588235294116" height="61.76692307692307" as="geometry"/>
                </mxCell>
                <mxCell id="yvF3iTE31LWRvtUjP0S4-15" value="" style="shape=mxgraph.arrows2.arrow;dy=0.4;dx=16;notch=0;direction=north;fillColor=#2F5B7C;strokeColor=none;rotation=90;" parent="yvF3iTE31LWRvtUjP0S4-14" vertex="1">
                    <mxGeometry x="-1.7647058823529411" y="4.411923076923077" width="21.176470588235293" height="52.943076923076916" as="geometry"/>
                </mxCell>
                <mxCell id="3tbVtcQ5HgRzrrxqIutd-65" style="edgeStyle=orthogonalEdgeStyle;rounded=0;orthogonalLoop=1;jettySize=auto;html=1;exitX=1;exitY=0.5;exitDx=0;exitDy=0;entryX=0;entryY=0.5;entryDx=0;entryDy=0;strokeWidth=2;strokeColor=#47c796;" parent="1" source="3tbVtcQ5HgRzrrxqIutd-2" target="3tbVtcQ5HgRzrrxqIutd-12" edge="1">
                    <mxGeometry relative="1" as="geometry"/>
                </mxCell>
                <mxCell id="3tbVtcQ5HgRzrrxqIutd-67" value="solace/tracing" style="edgeLabel;html=1;align=center;verticalAlign=middle;resizable=0;points=[];" parent="3tbVtcQ5HgRzrrxqIutd-65" vertex="1" connectable="0">
                    <mxGeometry x="-0.2275" relative="1" as="geometry">
                        <mxPoint x="-2" y="-10" as="offset"/>
                    </mxGeometry>
                </mxCell>
                <mxCell id="3tbVtcQ5HgRzrrxqIutd-66" style="edgeStyle=orthogonalEdgeStyle;rounded=0;orthogonalLoop=1;jettySize=auto;html=1;exitX=1;exitY=0.5;exitDx=0;exitDy=0;strokeWidth=2;strokeColor=#47c796;" parent="1" source="3tbVtcQ5HgRzrrxqIutd-12" target="3tbVtcQ5HgRzrrxqIutd-8" edge="1">
                    <mxGeometry relative="1" as="geometry"/>
                </mxCell>
                <mxCell id="6" style="edgeStyle=none;html=1;exitX=0;exitY=0.5;exitDx=0;exitDy=0;strokeWidth=5;strokeColor=#f6a900;" parent="1" source="3" target="3tbVtcQ5HgRzrrxqIutd-20" edge="1">
                    <mxGeometry relative="1" as="geometry"/>
                </mxCell>
                <mxCell id="3" value="" style="rounded=0;whiteSpace=wrap;html=1;" parent="1" vertex="1">
                    <mxGeometry x="640" y="710" width="160" height="140" as="geometry"/>
                </mxCell>
                <mxCell id="4" value="" style="shape=image;verticalLabelPosition=bottom;verticalAlign=top;imageAspect=0;aspect=fixed;image=data:image/svg+xml,PHN2ZyB4bWxucz0iaHR0cDovL3d3dy53My5vcmcvMjAwMC9zdmciIHZpZXdCb3g9IjAgMCAxMjggMTI4Ij4mI3hhOyAgPHBhdGggZD0iTTY3LjY0OCA2OS43OTdjLTUuMjQ2IDUuMjUtNS4yNDYgMTMuNzU4IDAgMTkuMDA4IDUuMjUgNS4yNDYgMTMuNzU4IDUuMjQ2IDE5LjAwNCAwIDUuMjUtNS4yNSA1LjI1LTEzLjc1OCAwLTE5LjAwOC01LjI0Ni01LjI0Ni0xMy43NTQtNS4yNDYtMTkuMDA0IDBabTE0LjIwNyAxNC4yMTlhNi42NDkgNi42NDkgMCAwIDEtOS40MSAwIDYuNjUgNi42NSAwIDAgMSAwLTkuNDA3IDYuNjQ5IDYuNjQ5IDAgMCAxIDkuNDEgMGMyLjU5OCAyLjU4NiAyLjU5OCA2LjgwOSAwIDkuNDA3Wk04Ni40MyAzLjY3MmwtOC4yMzUgOC4yMzRhNC4xNyA0LjE3IDAgMCAwIDAgNS44NzVsMzIuMTQ5IDMyLjE0OWE0LjE3IDQuMTcgMCAwIDAgNS44NzUgMGw4LjIzNC04LjIzNWMxLjYxLTEuNjEgMS42MS00LjI2MSAwLTUuODdMOTIuMjkgMy42NzFhNC4xNTkgNC4xNTkgMCAwIDAtNS44NiAwWk0yOC43MzggMTA4Ljg5NWEzLjc2MyAzLjc2MyAwIDAgMCAwLTUuMzFsLTQuMTgzLTQuMTg3YTMuNzY4IDMuNzY4IDAgMCAwLTUuMzEzIDBsLTguNjQ0IDguNjQ5LS4wMTYuMDEyLTIuMzcxLTIuMzc1Yy0xLjMxMy0xLjMxMy0zLjQ1LTEuMzEzLTQuNzUgMC0xLjMxMyAxLjMxMi0xLjMxMyAzLjQ0OSAwIDQuNzVsMTQuMjQ2IDE0LjI0MmEzLjM1MyAzLjM1MyAwIDAgMCA0Ljc0NiAwYzEuMy0xLjMxMyAxLjMxMy0zLjQ1IDAtNC43NDZsLTIuMzc1LTIuMzc1LjAxNi0uMDEyWm0wIDAiIGZpbGw9IiNmNWE4MDAiLz4mI3hhOyAgPHBhdGggZD0iTTcyLjI5NyAyNy4zMTMgNTQuMDA0IDQ1LjYwNWMtMS42MjUgMS42MjUtMS42MjUgNC4zMDEgMCA1LjkyNkw2NS4zIDYyLjgyNGM3Ljk4NC01Ljc0NiAxOS4xOC01LjAzNSAyNi4zNjMgMi4xNTNsOS4xNDgtOS4xNDljMS42MjItMS42MjUgMS42MjItNC4yOTcgMC01LjkyMkw3OC4yMiAyNy4zMTNhNC4xODUgNC4xODUgMCAwIDAtNS45MjIgMFpNNjAuNTUgNjcuNTg1bC02LjY3Mi02LjY3MmMtMS41NjMtMS41NjItNC4xMjUtMS41NjItNS42ODQgMGwtMjMuNTMgMjMuNTRhNC4wMzYgNC4wMzYgMCAwIDAgMCA1LjY4N2wxMy4zMzEgMTMuMzMyYTQuMDM2IDQuMDM2IDAgMCAwIDUuNjg4IDBsMTUuMTMyLTE1LjE1N2MtMy4xOTktNi42MDktMi42MjUtMTQuNTkzIDEuNzM1LTIwLjczWm0wIDAiIGZpbGw9IiM0MjVjYzciLz4mI3hhOzwvc3ZnPg==" parent="1" vertex="1">
                    <mxGeometry x="698.5" y="758.5" width="43" height="43" as="geometry"/>
                </mxCell>
                <mxCell id="5" value="External OpenTelemetry&amp;nbsp;Collector" style="text;html=1;align=center;verticalAlign=middle;whiteSpace=wrap;rounded=0;" parent="1" vertex="1">
                    <mxGeometry x="690" y="710" width="60" height="30" as="geometry"/>
                </mxCell>
            </root>
        </mxGraphModel>
    </diagram>
</mxfile>